<svg xmlns="http://www.w3.org/2000/svg" xmlns:xlink="http://www.w3.org/1999/xlink" width="2000" zoomAndPan="magnify" viewBox="0 0 1500 1499.999933" height="2000" preserveAspectRatio="xMidYMid meet" version="1.0"><defs><g/><clipPath id="a5b4e7bb83"><rect x="0" width="607" y="0" height="860"/></clipPath><clipPath id="683d781edf"><path d="M 0.398438 138 L 608 138 L 608 761 L 0.398438 761 Z M 0.398438 138 " clip-rule="nonzero"/></clipPath><clipPath id="bad37360e1"><rect x="0" width="613" y="0" height="860"/></clipPath><clipPath id="8b9b89724c"><rect x="0" width="629" y="0" height="70"/></clipPath><clipPath id="fe8e0e8a0a"><path d="M 734.78125 917.332031 L 797.277344 917.332031 L 797.277344 959.058594 L 734.78125 959.058594 Z M 734.78125 917.332031 " clip-rule="nonzero"/></clipPath><clipPath id="51c567125d"><path d="M 779.625 953.476562 C 769.949219 933.074219 778.574219 932.398438 781.351562 933.976562 C 783.675781 935.25 784.726562 939.601562 785.25 942.375 C 785.773438 944.851562 785.625 947.625 784.949219 949.574219 C 784.351562 951.148438 783.074219 952.574219 782.175781 953.476562 C 781.5 954.074219 781.050781 954.449219 780.148438 954.75 C 778.949219 955.273438 777.074219 955.875 775.5 955.875 C 774 955.800781 772.125 955.199219 770.925781 954.601562 C 770.101562 954.226562 769.574219 953.773438 768.976562 953.25 C 768.375 952.726562 767.851562 952.199219 767.398438 951.449219 C 766.726562 950.324219 766.800781 948.523438 765.824219 946.949219 C 764.25 944.550781 760.351562 942 757.949219 939.449219 C 755.625 936.976562 752.773438 934.199219 751.574219 931.800781 C 750.824219 930.148438 750.601562 928.425781 750.601562 927.148438 C 750.601562 926.175781 750.675781 925.648438 750.976562 924.75 C 751.425781 923.476562 752.25 921.675781 753.300781 920.550781 C 754.425781 919.425781 755.851562 918.449219 757.351562 918 C 758.851562 917.476562 760.800781 917.476562 762.148438 917.550781 C 763.050781 917.625 763.648438 917.773438 764.476562 918.226562 C 765.601562 918.75 767.324219 919.574219 768.300781 921.074219 C 769.726562 923.101562 770.175781 926.550781 770.925781 930.300781 C 771.976562 935.625 773.550781 946.875 773.324219 950.25 C 773.25 951.449219 773.101562 951.75 772.726562 952.574219 C 772.199219 953.773438 771.148438 955.5 769.949219 956.550781 C 768.75 957.523438 766.949219 958.351562 765.675781 958.726562 C 764.773438 959.023438 764.175781 959.101562 763.273438 959.023438 C 761.925781 958.949219 759.824219 958.351562 758.625 957.824219 C 757.726562 957.449219 757.273438 957.074219 756.601562 956.398438 C 755.699219 955.5 754.949219 954.375 753.898438 952.425781 C 751.726562 948.300781 746.773438 936.074219 746.023438 931.574219 C 745.648438 929.398438 745.726562 928.199219 746.101562 926.699219 C 746.476562 925.199219 747.601562 923.550781 748.425781 922.5 C 749.023438 921.75 749.476562 921.375 750.300781 920.925781 C 751.425781 920.25 753.300781 919.5 754.800781 919.351562 C 756.375 919.199219 758.175781 919.425781 759.601562 920.023438 C 761.023438 920.550781 762.601562 921.898438 763.5 922.800781 C 764.175781 923.476562 764.550781 923.851562 764.851562 924.824219 C 765.449219 926.773438 765.300781 931.050781 764.925781 934.125 C 764.550781 937.425781 763.648438 941.773438 762.300781 944.175781 C 761.476562 945.824219 760.125 947.023438 759.074219 947.851562 C 758.324219 948.375 757.800781 948.675781 756.898438 948.976562 C 755.699219 949.351562 753.675781 949.726562 752.101562 949.5 C 750.523438 949.273438 748.875 948.675781 747.601562 947.773438 C 746.324219 946.875 745.050781 945.226562 744.375 944.101562 C 743.925781 943.351562 743.699219 942.75 743.550781 941.851562 C 743.324219 940.574219 744.148438 937.425781 743.550781 936.976562 C 743.101562 936.675781 741.824219 938.25 741.300781 937.949219 C 740.550781 937.574219 740.25 934.726562 740.324219 933.148438 C 740.324219 931.574219 741 929.699219 741.601562 928.5 C 742.050781 927.675781 742.351562 927.148438 743.101562 926.550781 C 744 925.648438 745.648438 924.375 747.148438 923.851562 C 748.648438 923.398438 750.449219 923.175781 752.023438 923.476562 C 753.523438 923.699219 755.398438 924.601562 756.523438 925.273438 C 757.273438 925.800781 757.800781 926.324219 758.25 927 C 758.773438 927.601562 759.375 928.050781 759.601562 929.023438 C 760.125 931.125 759 936.148438 758.699219 939.523438 C 758.398438 942.601562 758.398438 945.898438 757.800781 948.300781 C 757.273438 950.101562 756.75 951.523438 755.773438 952.800781 C 754.800781 954 753.074219 955.199219 751.875 955.800781 C 751.050781 956.25 750.449219 956.398438 749.550781 956.476562 C 748.199219 956.625 745.949219 956.550781 744.675781 956.175781 C 743.699219 955.949219 743.175781 955.726562 742.425781 955.199219 C 741.300781 954.449219 739.726562 952.800781 738.976562 951.675781 C 738.375 950.925781 738.148438 950.398438 737.925781 949.425781 C 737.625 948.148438 738.300781 944.925781 737.625 944.550781 C 737.25 944.324219 736.125 945.824219 735.675781 945.601562 C 734.925781 945.148438 734.699219 941.023438 735.226562 939.074219 C 735.675781 937.050781 737.175781 934.875 738.75 933.523438 C 740.398438 932.25 743.175781 931.5 744.898438 931.351562 C 746.175781 931.199219 747.148438 931.5 748.199219 931.800781 C 749.25 932.175781 750.226562 932.476562 751.199219 933.300781 C 752.476562 934.5 754.351562 936.675781 754.949219 938.699219 C 755.550781 940.648438 755.175781 943.5 754.726562 945.226562 C 754.351562 946.425781 753.75 947.25 753.074219 948.074219 C 752.398438 948.976562 751.648438 949.726562 750.601562 950.324219 C 749.023438 951.074219 745.949219 951.824219 744.226562 951.824219 C 742.949219 951.824219 742.125 951.601562 741 951 C 739.425781 950.175781 737.101562 948.074219 736.125 946.574219 C 735.449219 945.523438 735.148438 944.699219 735 943.425781 C 734.851562 941.699219 735.074219 938.851562 735.976562 936.976562 C 736.875 935.101562 738.75 933.300781 740.625 932.398438 C 742.5 931.5 745.425781 931.351562 747.148438 931.574219 C 748.351562 931.726562 749.175781 932.023438 750.226562 932.699219 C 751.726562 933.75 753.375 935.550781 754.574219 937.648438 C 756.074219 940.351562 757.949219 945.523438 757.800781 948.300781 C 757.648438 950.175781 756.523438 951.675781 755.773438 952.800781 C 755.175781 953.550781 754.800781 954 753.976562 954.523438 C 752.925781 955.273438 751.125 956.25 749.550781 956.476562 C 747.976562 956.773438 745.949219 956.550781 744.675781 956.175781 C 743.699219 955.949219 743.175781 955.726562 742.425781 955.199219 C 741.300781 954.449219 739.726562 953.023438 738.976562 951.675781 C 738.148438 950.324219 737.625 948.375 737.476562 947.023438 C 737.398438 946.050781 737.398438 945.523438 737.625 944.550781 C 738.148438 942.824219 741 940.050781 741.300781 937.949219 C 741.601562 936.300781 740.25 934.726562 740.324219 933.148438 C 740.324219 931.648438 740.851562 929.851562 741.601562 928.5 C 742.425781 927.148438 743.851562 925.726562 744.976562 924.976562 C 745.726562 924.375 746.25 924.148438 747.148438 923.851562 C 748.425781 923.550781 750.449219 923.175781 752.023438 923.476562 C 753.523438 923.699219 755.25 924.375 756.523438 925.273438 C 757.800781 926.25 758.699219 927.300781 759.601562 929.023438 C 761.175781 931.949219 763.574219 938.851562 763.199219 941.925781 C 762.976562 943.800781 762 945 760.949219 946.199219 C 759.898438 947.398438 758.175781 948.375 756.898438 948.976562 C 756.074219 949.351562 755.476562 949.5 754.574219 949.5 C 753.226562 949.574219 750.976562 949.273438 749.773438 948.898438 C 748.875 948.601562 748.351562 948.375 747.601562 947.773438 C 746.550781 946.949219 745.125 945.523438 744.375 944.101562 C 743.625 942.75 743.324219 940.726562 743.25 939.449219 C 743.175781 938.476562 743.175781 937.800781 743.550781 936.976562 C 744.074219 935.925781 746.398438 935.101562 746.773438 933.824219 C 747.226562 932.476562 745.800781 930.449219 745.726562 929.101562 C 745.726562 928.199219 745.800781 927.601562 746.101562 926.699219 C 746.550781 925.5 747.375 923.625 748.425781 922.5 C 749.476562 921.375 750.976562 920.398438 752.476562 919.875 C 753.898438 919.351562 755.925781 919.273438 757.273438 919.351562 C 758.175781 919.425781 758.851562 919.726562 759.601562 920.023438 C 760.351562 920.324219 761.023438 920.550781 761.699219 921.148438 C 762.75 921.976562 763.800781 923.175781 764.851562 924.824219 C 766.648438 927.824219 769.199219 933.601562 770.625 938.023438 C 771.976562 942.074219 773.550781 947.175781 773.324219 950.25 C 773.175781 952.125 772.273438 953.625 771.601562 954.75 C 771.074219 955.5 770.699219 955.949219 769.949219 956.550781 C 768.898438 957.300781 767.175781 958.351562 765.675781 958.726562 C 764.175781 959.101562 762.375 959.101562 760.875 958.726562 C 759.375 958.273438 757.800781 957.449219 756.601562 956.398438 C 755.476562 955.351562 754.425781 953.625 753.898438 952.425781 C 753.523438 951.601562 753.523438 951.226562 753.375 950.101562 C 753 947.101562 753.75 937.425781 752.925781 933.824219 C 752.398438 931.875 751.125 931.050781 750.824219 929.550781 C 750.523438 927.976562 750.523438 926.25 750.976562 924.75 C 751.351562 923.25 752.476562 921.601562 753.300781 920.550781 C 753.898438 919.875 754.5 919.5 755.175781 919.050781 C 755.851562 918.601562 756.449219 918.226562 757.351562 918 C 758.625 917.625 760.574219 917.324219 762.148438 917.550781 C 763.648438 917.773438 765.074219 918.375 766.574219 919.425781 C 768.675781 920.925781 770.925781 924 773.101562 926.550781 C 775.351562 929.101562 777.75 931.726562 779.773438 934.648438 C 781.949219 937.800781 785.023438 942 785.550781 944.851562 C 785.925781 946.648438 785.324219 948.375 784.949219 949.574219 C 784.648438 950.476562 784.351562 951 783.75 951.675781 C 783 952.726562 781.574219 954.074219 780.148438 954.75 C 778.800781 955.5 776.851562 955.800781 775.5 955.875 C 774.601562 955.875 773.925781 955.726562 773.175781 955.5 C 772.351562 955.351562 771.675781 955.125 770.925781 954.601562 C 769.800781 953.925781 768.300781 952.726562 767.398438 951.449219 C 766.574219 950.101562 766.273438 948.898438 765.824219 946.949219 C 765 943.425781 763.949219 936.300781 764.324219 931.949219 C 764.699219 928.425781 765 924.601562 767.175781 922.5 C 769.574219 920.175781 775.726562 918.675781 779.023438 919.5 C 781.949219 920.25 784.273438 923.699219 786.074219 926.25 C 787.800781 928.726562 788.25 931.726562 789.675781 934.5 C 791.25 937.574219 794.101562 940.800781 795.375 943.726562 C 796.351562 946.125 797.175781 948.675781 797.101562 950.699219 C 797.023438 952.199219 796.574219 953.550781 795.675781 954.824219 C 794.625 956.324219 792.449219 958.125 790.5 958.648438 C 788.625 959.175781 785.925781 958.949219 784.125 958.125 C 782.25 957.226562 779.625 953.476562 779.625 953.476562 " clip-rule="nonzero"/></clipPath><clipPath id="37038c925d"><path d="M 0.78125 0.332031 L 63.277344 0.332031 L 63.277344 42.058594 L 0.78125 42.058594 Z M 0.78125 0.332031 " clip-rule="nonzero"/></clipPath><clipPath id="473af8c76e"><path d="M 45.625 36.476562 C 35.949219 16.074219 44.574219 15.398438 47.351562 16.976562 C 49.675781 18.25 50.726562 22.601562 51.25 25.375 C 51.773438 27.851562 51.625 30.625 50.949219 32.574219 C 50.351562 34.148438 49.074219 35.574219 48.175781 36.476562 C 47.5 37.074219 47.050781 37.449219 46.148438 37.75 C 44.949219 38.273438 43.074219 38.875 41.5 38.875 C 40 38.800781 38.125 38.199219 36.925781 37.601562 C 36.101562 37.226562 35.574219 36.773438 34.976562 36.25 C 34.375 35.726562 33.851562 35.199219 33.398438 34.449219 C 32.726562 33.324219 32.800781 31.523438 31.824219 29.949219 C 30.25 27.550781 26.351562 25 23.949219 22.449219 C 21.625 19.976562 18.773438 17.199219 17.574219 14.800781 C 16.824219 13.148438 16.601562 11.425781 16.601562 10.148438 C 16.601562 9.175781 16.675781 8.648438 16.976562 7.75 C 17.425781 6.476562 18.25 4.675781 19.300781 3.550781 C 20.425781 2.425781 21.851562 1.449219 23.351562 1 C 24.851562 0.476562 26.800781 0.476562 28.148438 0.550781 C 29.050781 0.625 29.648438 0.773438 30.476562 1.226562 C 31.601562 1.75 33.324219 2.574219 34.300781 4.074219 C 35.726562 6.101562 36.175781 9.550781 36.925781 13.300781 C 37.976562 18.625 39.550781 29.875 39.324219 33.25 C 39.25 34.449219 39.101562 34.75 38.726562 35.574219 C 38.199219 36.773438 37.148438 38.5 35.949219 39.550781 C 34.75 40.523438 32.949219 41.351562 31.675781 41.726562 C 30.773438 42.023438 30.175781 42.101562 29.273438 42.023438 C 27.925781 41.949219 25.824219 41.351562 24.625 40.824219 C 23.726562 40.449219 23.273438 40.074219 22.601562 39.398438 C 21.699219 38.5 20.949219 37.375 19.898438 35.425781 C 17.726562 31.300781 12.773438 19.074219 12.023438 14.574219 C 11.648438 12.398438 11.726562 11.199219 12.101562 9.699219 C 12.476562 8.199219 13.601562 6.550781 14.425781 5.5 C 15.023438 4.75 15.476562 4.375 16.300781 3.925781 C 17.425781 3.25 19.300781 2.5 20.800781 2.351562 C 22.375 2.199219 24.175781 2.425781 25.601562 3.023438 C 27.023438 3.550781 28.601562 4.898438 29.5 5.800781 C 30.175781 6.476562 30.550781 6.851562 30.851562 7.824219 C 31.449219 9.773438 31.300781 14.050781 30.925781 17.125 C 30.550781 20.425781 29.648438 24.773438 28.300781 27.175781 C 27.476562 28.824219 26.125 30.023438 25.074219 30.851562 C 24.324219 31.375 23.800781 31.675781 22.898438 31.976562 C 21.699219 32.351562 19.675781 32.726562 18.101562 32.5 C 16.523438 32.273438 14.875 31.675781 13.601562 30.773438 C 12.324219 29.875 11.050781 28.226562 10.375 27.101562 C 9.925781 26.351562 9.699219 25.75 9.550781 24.851562 C 9.324219 23.574219 10.148438 20.425781 9.550781 19.976562 C 9.101562 19.675781 7.824219 21.25 7.300781 20.949219 C 6.550781 20.574219 6.25 17.726562 6.324219 16.148438 C 6.324219 14.574219 7 12.699219 7.601562 11.5 C 8.050781 10.675781 8.351562 10.148438 9.101562 9.550781 C 10 8.648438 11.648438 7.375 13.148438 6.851562 C 14.648438 6.398438 16.449219 6.175781 18.023438 6.476562 C 19.523438 6.699219 21.398438 7.601562 22.523438 8.273438 C 23.273438 8.800781 23.800781 9.324219 24.25 10 C 24.773438 10.601562 25.375 11.050781 25.601562 12.023438 C 26.125 14.125 25 19.148438 24.699219 22.523438 C 24.398438 25.601562 24.398438 28.898438 23.800781 31.300781 C 23.273438 33.101562 22.75 34.523438 21.773438 35.800781 C 20.800781 37 19.074219 38.199219 17.875 38.800781 C 17.050781 39.25 16.449219 39.398438 15.550781 39.476562 C 14.199219 39.625 11.949219 39.550781 10.675781 39.175781 C 9.699219 38.949219 9.175781 38.726562 8.425781 38.199219 C 7.300781 37.449219 5.726562 35.800781 4.976562 34.675781 C 4.375 33.925781 4.148438 33.398438 3.925781 32.425781 C 3.625 31.148438 4.300781 27.925781 3.625 27.550781 C 3.25 27.324219 2.125 28.824219 1.675781 28.601562 C 0.925781 28.148438 0.699219 24.023438 1.226562 22.074219 C 1.675781 20.050781 3.175781 17.875 4.75 16.523438 C 6.398438 15.25 9.175781 14.5 10.898438 14.351562 C 12.175781 14.199219 13.148438 14.5 14.199219 14.800781 C 15.25 15.175781 16.226562 15.476562 17.199219 16.300781 C 18.476562 17.5 20.351562 19.675781 20.949219 21.699219 C 21.550781 23.648438 21.175781 26.5 20.726562 28.226562 C 20.351562 29.425781 19.75 30.25 19.074219 31.074219 C 18.398438 31.976562 17.648438 32.726562 16.601562 33.324219 C 15.023438 34.074219 11.949219 34.824219 10.226562 34.824219 C 8.949219 34.824219 8.125 34.601562 7 34 C 5.425781 33.175781 3.101562 31.074219 2.125 29.574219 C 1.449219 28.523438 1.148438 27.699219 1 26.425781 C 0.851562 24.699219 1.074219 21.851562 1.976562 19.976562 C 2.875 18.101562 4.75 16.300781 6.625 15.398438 C 8.5 14.5 11.425781 14.351562 13.148438 14.574219 C 14.351562 14.726562 15.175781 15.023438 16.226562 15.699219 C 17.726562 16.75 19.375 18.550781 20.574219 20.648438 C 22.074219 23.351562 23.949219 28.523438 23.800781 31.300781 C 23.648438 33.175781 22.523438 34.675781 21.773438 35.800781 C 21.175781 36.550781 20.800781 37 19.976562 37.523438 C 18.925781 38.273438 17.125 39.25 15.550781 39.476562 C 13.976562 39.773438 11.949219 39.550781 10.675781 39.175781 C 9.699219 38.949219 9.175781 38.726562 8.425781 38.199219 C 7.300781 37.449219 5.726562 36.023438 4.976562 34.675781 C 4.148438 33.324219 3.625 31.375 3.476562 30.023438 C 3.398438 29.050781 3.398438 28.523438 3.625 27.550781 C 4.148438 25.824219 7 23.050781 7.300781 20.949219 C 7.601562 19.300781 6.25 17.726562 6.324219 16.148438 C 6.324219 14.648438 6.851562 12.851562 7.601562 11.5 C 8.425781 10.148438 9.851562 8.726562 10.976562 7.976562 C 11.726562 7.375 12.25 7.148438 13.148438 6.851562 C 14.425781 6.550781 16.449219 6.175781 18.023438 6.476562 C 19.523438 6.699219 21.25 7.375 22.523438 8.273438 C 23.800781 9.25 24.699219 10.300781 25.601562 12.023438 C 27.175781 14.949219 29.574219 21.851562 29.199219 24.925781 C 28.976562 26.800781 28 28 26.949219 29.199219 C 25.898438 30.398438 24.175781 31.375 22.898438 31.976562 C 22.074219 32.351562 21.476562 32.5 20.574219 32.5 C 19.226562 32.574219 16.976562 32.273438 15.773438 31.898438 C 14.875 31.601562 14.351562 31.375 13.601562 30.773438 C 12.550781 29.949219 11.125 28.523438 10.375 27.101562 C 9.625 25.75 9.324219 23.726562 9.25 22.449219 C 9.175781 21.476562 9.175781 20.800781 9.550781 19.976562 C 10.074219 18.925781 12.398438 18.101562 12.773438 16.824219 C 13.226562 15.476562 11.800781 13.449219 11.726562 12.101562 C 11.726562 11.199219 11.800781 10.601562 12.101562 9.699219 C 12.550781 8.5 13.375 6.625 14.425781 5.5 C 15.476562 4.375 16.976562 3.398438 18.476562 2.875 C 19.898438 2.351562 21.925781 2.273438 23.273438 2.351562 C 24.175781 2.425781 24.851562 2.726562 25.601562 3.023438 C 26.351562 3.324219 27.023438 3.550781 27.699219 4.148438 C 28.75 4.976562 29.800781 6.175781 30.851562 7.824219 C 32.648438 10.824219 35.199219 16.601562 36.625 21.023438 C 37.976562 25.074219 39.550781 30.175781 39.324219 33.25 C 39.175781 35.125 38.273438 36.625 37.601562 37.75 C 37.074219 38.5 36.699219 38.949219 35.949219 39.550781 C 34.898438 40.300781 33.175781 41.351562 31.675781 41.726562 C 30.175781 42.101562 28.375 42.101562 26.875 41.726562 C 25.375 41.273438 23.800781 40.449219 22.601562 39.398438 C 21.476562 38.351562 20.425781 36.625 19.898438 35.425781 C 19.523438 34.601562 19.523438 34.226562 19.375 33.101562 C 19 30.101562 19.75 20.425781 18.925781 16.824219 C 18.398438 14.875 17.125 14.050781 16.824219 12.550781 C 16.523438 10.976562 16.523438 9.25 16.976562 7.75 C 17.351562 6.25 18.476562 4.601562 19.300781 3.550781 C 19.898438 2.875 20.5 2.5 21.175781 2.050781 C 21.851562 1.601562 22.449219 1.226562 23.351562 1 C 24.625 0.625 26.574219 0.324219 28.148438 0.550781 C 29.648438 0.773438 31.074219 1.375 32.574219 2.425781 C 34.675781 3.925781 36.925781 7 39.101562 9.550781 C 41.351562 12.101562 43.75 14.726562 45.773438 17.648438 C 47.949219 20.800781 51.023438 25 51.550781 27.851562 C 51.925781 29.648438 51.324219 31.375 50.949219 32.574219 C 50.648438 33.476562 50.351562 34 49.75 34.675781 C 49 35.726562 47.574219 37.074219 46.148438 37.75 C 44.800781 38.5 42.851562 38.800781 41.5 38.875 C 40.601562 38.875 39.925781 38.726562 39.175781 38.5 C 38.351562 38.351562 37.675781 38.125 36.925781 37.601562 C 35.800781 36.925781 34.300781 35.726562 33.398438 34.449219 C 32.574219 33.101562 32.273438 31.898438 31.824219 29.949219 C 31 26.425781 29.949219 19.300781 30.324219 14.949219 C 30.699219 11.425781 31 7.601562 33.175781 5.5 C 35.574219 3.175781 41.726562 1.675781 45.023438 2.5 C 47.949219 3.25 50.273438 6.699219 52.074219 9.25 C 53.800781 11.726562 54.25 14.726562 55.675781 17.5 C 57.25 20.574219 60.101562 23.800781 61.375 26.726562 C 62.351562 29.125 63.175781 31.675781 63.101562 33.699219 C 63.023438 35.199219 62.574219 36.550781 61.675781 37.824219 C 60.625 39.324219 58.449219 41.125 56.5 41.648438 C 54.625 42.175781 51.925781 41.949219 50.125 41.125 C 48.25 40.226562 45.625 36.476562 45.625 36.476562 " clip-rule="nonzero"/></clipPath><clipPath id="10020dd523"><rect x="0" width="64" y="0" height="43"/></clipPath><clipPath id="d764e2b672"><path d="M 726.222656 914.691406 L 800.925781 914.691406 L 800.925781 967.953125 L 726.222656 967.953125 Z M 726.222656 914.691406 " clip-rule="nonzero"/></clipPath><clipPath id="ad74160520"><path d="M 726.226562 951.375 C 728.324219 934.425781 730.351562 931.5 732.449219 928.5 C 734.625 925.425781 737.324219 921.75 740.25 919.726562 C 742.875 917.925781 745.949219 917.101562 748.949219 916.351562 C 752.101562 915.523438 755.476562 915.375 758.773438 915.148438 C 762.226562 914.925781 765.898438 914.398438 769.273438 914.925781 C 772.5 915.375 776.023438 916.199219 778.648438 917.925781 C 781.273438 919.5 783.226562 922.125 785.101562 924.675781 C 787.050781 927.375 788.476562 930.75 790.050781 933.675781 C 791.625 936.601562 793.425781 939.300781 794.773438 942.226562 C 795.976562 945.074219 796.800781 949.050781 797.699219 951.148438 C 798.300781 952.351562 798.898438 953.023438 799.351562 953.851562 C 799.726562 954.601562 800.101562 955.199219 800.324219 955.875 C 800.550781 956.550781 800.699219 957.300781 800.773438 958.050781 C 800.773438 958.726562 800.773438 959.476562 800.625 960.226562 C 800.550781 960.898438 800.324219 961.648438 800.023438 962.324219 C 799.726562 963 799.351562 963.675781 798.898438 964.199219 C 798.523438 964.800781 798 965.324219 797.398438 965.773438 C 796.875 966.300781 796.199219 966.675781 795.523438 966.976562 C 794.851562 967.273438 794.175781 967.5 793.425781 967.648438 C 792.75 967.800781 792 967.875 791.25 967.875 C 790.5 967.800781 789.824219 967.726562 789.074219 967.5 C 788.398438 967.273438 787.726562 966.976562 787.050781 966.601562 C 786.449219 966.226562 785.851562 965.773438 785.324219 965.324219 C 784.800781 964.800781 783.898438 963.601562 783.898438 963.601562 C 783.898438 963.601562 782.398438 961.351562 782.175781 960.976562 C 782.101562 960.824219 782.101562 960.75 782.101562 960.75 C 782.101562 960.824219 781.800781 961.050781 781.726562 961.199219 C 781.648438 961.351562 781.574219 961.574219 781.5 961.726562 C 781.273438 962.023438 780.898438 962.25 780.601562 962.550781 C 780.375 962.851562 780.148438 963.300781 779.925781 963.523438 C 779.699219 963.675781 779.550781 963.675781 779.398438 963.824219 C 779.25 963.898438 779.175781 964.125 779.023438 964.199219 C 778.726562 964.425781 778.273438 964.574219 777.976562 964.726562 C 777.601562 964.949219 777.226562 965.25 776.925781 965.398438 C 776.773438 965.476562 776.550781 965.476562 776.398438 965.550781 C 776.175781 965.625 776.101562 965.699219 775.875 965.773438 C 775.574219 965.925781 775.050781 965.925781 774.675781 966 C 774.300781 966.074219 773.851562 966.226562 773.550781 966.226562 C 773.324219 966.300781 773.175781 966.226562 772.949219 966.226562 C 772.800781 966.226562 772.574219 966.300781 772.351562 966.300781 C 772.050781 966.300781 771.601562 966.148438 771.226562 966.074219 C 770.851562 966 770.324219 966.074219 770.023438 966 C 769.800781 965.925781 769.726562 965.773438 769.5 965.773438 C 769.351562 965.699219 769.125 965.699219 768.898438 965.625 C 768.601562 965.550781 768.226562 965.25 767.925781 965.101562 C 767.550781 964.875 767.175781 964.800781 766.800781 964.574219 C 766.5 964.425781 766.351562 964.125 766.050781 964.050781 C 765.601562 963.898438 765.148438 964.050781 764.476562 964.050781 C 763.273438 963.898438 760.726562 962.925781 759.300781 963.148438 C 758.25 963.300781 757.875 964.125 756.675781 964.425781 C 754.351562 965.023438 749.476562 965.398438 745.800781 964.875 C 741.75 964.273438 736.726562 963.074219 733.425781 960.75 C 730.273438 958.5 726.226562 951.375 726.226562 951.375 " clip-rule="nonzero"/></clipPath><clipPath id="dc786c531f"><path d="M 0.222656 0.691406 L 74.878906 0.691406 L 74.878906 53.917969 L 0.222656 53.917969 Z M 0.222656 0.691406 " clip-rule="nonzero"/></clipPath><clipPath id="654d528aab"><path d="M 0.226562 37.375 C 2.324219 20.425781 4.351562 17.5 6.449219 14.5 C 8.625 11.425781 11.324219 7.75 14.25 5.726562 C 16.875 3.925781 19.949219 3.101562 22.949219 2.351562 C 26.101562 1.523438 29.476562 1.375 32.773438 1.148438 C 36.226562 0.925781 39.898438 0.398438 43.273438 0.925781 C 46.5 1.375 50.023438 2.199219 52.648438 3.925781 C 55.273438 5.5 57.226562 8.125 59.101562 10.675781 C 61.050781 13.375 62.476562 16.75 64.050781 19.675781 C 65.625 22.601562 67.425781 25.300781 68.773438 28.226562 C 69.976562 31.074219 70.800781 35.050781 71.699219 37.148438 C 72.300781 38.351562 72.898438 39.023438 73.351562 39.851562 C 73.726562 40.601562 74.101562 41.199219 74.324219 41.875 C 74.550781 42.550781 74.699219 43.300781 74.773438 44.050781 C 74.773438 44.726562 74.773438 45.476562 74.625 46.226562 C 74.550781 46.898438 74.324219 47.648438 74.023438 48.324219 C 73.726562 49 73.351562 49.675781 72.898438 50.199219 C 72.523438 50.800781 72 51.324219 71.398438 51.773438 C 70.875 52.300781 70.199219 52.675781 69.523438 52.976562 C 68.851562 53.273438 68.175781 53.5 67.425781 53.648438 C 66.75 53.800781 66 53.875 65.25 53.875 C 64.5 53.800781 63.824219 53.726562 63.074219 53.5 C 62.398438 53.273438 61.726562 52.976562 61.050781 52.601562 C 60.449219 52.226562 59.851562 51.773438 59.324219 51.324219 C 58.800781 50.800781 57.898438 49.601562 57.898438 49.601562 C 57.898438 49.601562 56.398438 47.351562 56.175781 46.976562 C 56.101562 46.824219 56.101562 46.75 56.101562 46.75 C 56.101562 46.824219 55.800781 47.050781 55.726562 47.199219 C 55.648438 47.351562 55.574219 47.574219 55.5 47.726562 C 55.273438 48.023438 54.898438 48.25 54.601562 48.550781 C 54.375 48.851562 54.148438 49.300781 53.925781 49.523438 C 53.699219 49.675781 53.550781 49.675781 53.398438 49.824219 C 53.25 49.898438 53.175781 50.125 53.023438 50.199219 C 52.726562 50.425781 52.273438 50.574219 51.976562 50.726562 C 51.601562 50.949219 51.226562 51.25 50.925781 51.398438 C 50.773438 51.476562 50.550781 51.476562 50.398438 51.550781 C 50.175781 51.625 50.101562 51.699219 49.875 51.773438 C 49.574219 51.925781 49.050781 51.925781 48.675781 52 C 48.300781 52.074219 47.851562 52.226562 47.550781 52.226562 C 47.324219 52.300781 47.175781 52.226562 46.949219 52.226562 C 46.800781 52.226562 46.574219 52.300781 46.351562 52.300781 C 46.050781 52.300781 45.601562 52.148438 45.226562 52.074219 C 44.851562 52 44.324219 52.074219 44.023438 52 C 43.800781 51.925781 43.726562 51.773438 43.5 51.773438 C 43.351562 51.699219 43.125 51.699219 42.898438 51.625 C 42.601562 51.550781 42.226562 51.25 41.925781 51.101562 C 41.550781 50.875 41.175781 50.800781 40.800781 50.574219 C 40.5 50.425781 40.351562 50.125 40.050781 50.050781 C 39.601562 49.898438 39.148438 50.050781 38.476562 50.050781 C 37.273438 49.898438 34.726562 48.925781 33.300781 49.148438 C 32.25 49.300781 31.875 50.125 30.675781 50.425781 C 28.351562 51.023438 23.476562 51.398438 19.800781 50.875 C 15.75 50.273438 10.726562 49.074219 7.425781 46.75 C 4.273438 44.5 0.226562 37.375 0.226562 37.375 " clip-rule="nonzero"/></clipPath><clipPath id="7f397fa2bb"><rect x="0" width="75" y="0" height="54"/></clipPath><clipPath id="7087269a17"><path d="M 849 915.804688 L 900.347656 915.804688 L 900.347656 951.609375 L 849 951.609375 Z M 849 915.804688 " clip-rule="nonzero"/></clipPath><clipPath id="4553041332"><path d="M 897.898438 926.699219 C 900.074219 943.800781 899.699219 944.925781 898.726562 946.125 C 897.601562 947.625 895.125 949.425781 893.324219 950.023438 C 891.824219 950.476562 890.25 950.398438 888.824219 950.023438 C 887.476562 949.726562 885.976562 949.125 884.851562 948 C 883.5 946.726562 883.273438 944.25 881.699219 942.148438 C 879.300781 939.074219 872.851562 934.949219 870.601562 932.25 C 869.398438 930.75 868.648438 929.773438 868.351562 928.273438 C 867.898438 926.324219 868.199219 923.25 868.875 921.449219 C 869.476562 919.949219 870.601562 918.75 871.800781 917.851562 C 873 916.949219 874.574219 916.273438 876.074219 916.050781 C 877.574219 915.824219 879.226562 915.976562 880.648438 916.425781 C 882.074219 916.949219 883.648438 917.476562 884.550781 918.898438 C 885.976562 921.148438 886.273438 926.023438 886.273438 930 C 886.351562 934.648438 885.375 941.925781 884.101562 945.226562 C 883.351562 947.101562 882.300781 948.226562 881.398438 949.125 C 880.726562 949.726562 880.273438 950.101562 879.449219 950.398438 C 878.25 950.925781 876.375 951.523438 874.875 951.523438 C 873.375 951.523438 871.5 950.925781 870.300781 950.398438 C 869.476562 950.023438 869.023438 949.648438 868.425781 949.050781 C 867.523438 948.148438 866.25 946.574219 865.726562 945.148438 C 865.199219 943.726562 865.800781 942.226562 865.199219 940.5 C 864.449219 938.023438 859.648438 934.199219 860.476562 932.101562 C 861.523438 929.550781 872.175781 926.101562 874.574219 927.601562 C 876.601562 928.875 876.074219 935.023438 875.773438 937.648438 C 875.625 939.449219 875.101562 940.800781 874.351562 942.148438 C 873.523438 943.425781 872.023438 944.773438 870.898438 945.523438 C 870.148438 946.050781 869.625 946.273438 868.726562 946.5 C 867.449219 946.800781 865.5 947.023438 863.925781 946.726562 C 862.425781 946.5 860.773438 945.75 859.574219 944.773438 C 858.375 943.800781 857.476562 942.675781 856.648438 941.023438 C 855.449219 938.550781 854.101562 933.898438 854.023438 931.199219 C 854.023438 929.324219 854.625 927.675781 855.148438 926.476562 C 855.523438 925.648438 855.824219 925.125 856.5 924.523438 C 857.398438 923.550781 859.273438 922.273438 860.476562 921.675781 C 861.300781 921.300781 861.898438 921.148438 862.800781 921.074219 C 864.074219 921 866.101562 921.074219 867.601562 921.601562 C 869.023438 922.199219 870.523438 923.175781 871.574219 924.300781 C 872.625 925.5 873.449219 926.699219 873.898438 928.574219 C 874.5 931.5 873.976562 937.648438 873.074219 940.5 C 872.550781 942.375 871.800781 943.574219 870.675781 944.773438 C 869.625 945.898438 868.125 946.875 866.625 947.398438 C 865.125 947.851562 863.101562 947.925781 861.824219 947.773438 C 860.851562 947.699219 860.25 947.550781 859.425781 947.101562 C 858.226562 946.574219 856.425781 945.226562 855.523438 944.25 C 854.925781 943.574219 854.625 943.125 854.175781 942.226562 C 853.425781 940.5 852.300781 936.75 851.851562 934.425781 C 851.550781 932.625 851.324219 931.125 851.625 929.550781 C 851.925781 927.976562 852.675781 926.324219 853.648438 925.125 C 854.625 923.851562 856.050781 922.726562 857.476562 922.125 C 858.976562 921.449219 861 921.226562 862.273438 921.226562 C 863.25 921.226562 863.851562 921.375 864.75 921.675781 C 865.949219 922.199219 867.75 923.175781 868.875 924.226562 C 870 925.351562 870.898438 926.625 871.425781 928.425781 C 872.101562 931.199219 871.726562 936.75 870.976562 939.523438 C 870.449219 941.398438 869.699219 942.675781 868.648438 943.875 C 867.601562 945.074219 866.101562 946.050781 864.601562 946.648438 C 863.101562 947.175781 861.300781 947.398438 859.726562 947.175781 C 858.074219 946.949219 856.425781 946.273438 855.074219 945.375 C 853.800781 944.476562 852.523438 942.824219 851.851562 941.699219 C 851.398438 940.875 851.324219 940.5 851.023438 939.375 C 850.351562 936.824219 849.074219 929.476562 849.074219 926.625 C 849.074219 925.125 849.148438 924.449219 849.601562 923.25 C 850.351562 921.675781 851.851562 919.199219 853.574219 918 C 855.300781 916.800781 857.851562 916.125 859.949219 916.199219 C 862.050781 916.351562 864.523438 917.324219 866.101562 918.675781 C 867.75 919.949219 869.101562 922.273438 869.550781 924.300781 C 870 926.324219 869.699219 928.949219 868.875 930.898438 C 867.976562 932.773438 866.175781 934.726562 864.300781 935.699219 C 862.5 936.675781 859.574219 936.898438 857.773438 936.75 C 856.574219 936.675781 855.675781 936.375 854.625 935.699219 C 853.125 934.800781 850.949219 932.851562 850.050781 930.976562 C 849.148438 929.023438 848.851562 926.398438 849.300781 924.375 C 849.75 922.351562 851.476562 919.949219 852.75 918.675781 C 853.574219 917.773438 854.398438 917.324219 855.601562 916.949219 C 857.25 916.425781 860.175781 916.050781 862.199219 916.574219 C 864.226562 917.101562 866.476562 918.976562 867.675781 920.25 C 868.5 921.226562 868.800781 921.824219 869.25 923.25 C 870.226562 926.101562 871.425781 933.675781 871.273438 937.050781 C 871.199219 939.074219 870.824219 940.425781 870.074219 941.851562 C 869.324219 943.199219 868.125 944.625 866.773438 945.523438 C 865.425781 946.351562 863.476562 946.949219 862.199219 947.175781 C 861.226562 947.324219 860.625 947.324219 859.726562 947.175781 C 858.375 946.949219 856.273438 946.125 855.074219 945.375 C 854.324219 944.925781 853.875 944.476562 853.273438 943.726562 C 852.449219 942.675781 851.398438 941.175781 851.023438 939.375 C 850.5 936.824219 850.949219 932.101562 851.625 929.550781 C 852.074219 927.75 852.898438 926.175781 853.648438 925.125 C 854.175781 924.300781 854.625 923.925781 855.375 923.398438 C 856.5 922.648438 858.300781 921.675781 859.875 921.375 C 861.375 921.074219 863.25 921.226562 864.75 921.675781 C 866.25 922.199219 867.75 923.101562 868.875 924.226562 C 870.074219 925.425781 870.824219 926.851562 871.5 928.726562 C 872.476562 931.199219 873.523438 935.550781 873.449219 938.101562 C 873.375 939.976562 872.699219 941.550781 872.175781 942.75 C 871.726562 943.648438 871.351562 944.101562 870.675781 944.773438 C 869.773438 945.675781 868.125 946.875 866.625 947.398438 C 865.125 947.851562 863.101562 947.925781 861.824219 947.773438 C 860.851562 947.699219 860.25 947.550781 859.425781 947.101562 C 858.226562 946.574219 856.574219 945.449219 855.523438 944.25 C 854.550781 943.050781 853.800781 941.699219 853.425781 939.898438 C 852.898438 937.050781 853.5 931.574219 854.324219 928.800781 C 854.851562 926.925781 855.449219 925.648438 856.5 924.523438 C 857.550781 923.324219 858.976562 922.273438 860.476562 921.675781 C 861.898438 921.148438 863.925781 921 865.199219 921.074219 C 866.175781 921.148438 866.699219 921.226562 867.601562 921.601562 C 868.800781 922.125 870.675781 923.398438 871.574219 924.300781 C 872.25 924.976562 872.550781 925.351562 873 926.324219 C 873.976562 928.5 875.851562 934.648438 875.773438 937.574219 C 875.699219 939.449219 875.101562 940.800781 874.351562 942.148438 C 873.523438 943.425781 872.023438 944.773438 870.898438 945.523438 C 870.148438 946.050781 869.625 946.273438 868.726562 946.5 C 867.449219 946.800781 865.5 947.023438 863.925781 946.726562 C 862.425781 946.5 860.773438 945.75 859.574219 944.773438 C 858.375 943.800781 857.25 942.148438 856.648438 941.023438 C 856.199219 940.199219 856.050781 939.675781 855.898438 938.699219 C 855.75 937.050781 855.824219 934.425781 856.273438 931.875 C 856.875 928.425781 856.875 921.898438 859.726562 919.949219 C 863.175781 917.550781 873.824219 918.824219 877.273438 921.300781 C 879.898438 923.175781 879.898438 927 881.023438 930.300781 C 882.375 934.125 884.773438 939.824219 884.625 942.976562 C 884.550781 944.851562 883.648438 946.273438 882.976562 947.324219 C 882.523438 948.074219 882.148438 948.523438 881.398438 949.125 C 880.425781 949.875 878.476562 950.851562 877.199219 951.226562 C 876.375 951.523438 875.773438 951.601562 874.875 951.523438 C 873.601562 951.449219 871.648438 951.074219 870.375 950.398438 C 869.023438 949.648438 867.675781 948.523438 866.851562 947.25 C 865.949219 945.976562 865.425781 944.101562 865.199219 942.898438 C 865.050781 942 864.898438 941.476562 865.199219 940.5 C 865.800781 938.550781 870.375 934.875 870.601562 932.25 C 870.824219 930.074219 868.125 927.898438 867.976562 925.949219 C 867.824219 924.375 868.125 922.875 868.875 921.449219 C 869.851562 919.726562 871.875 917.550781 873.824219 916.726562 C 875.773438 915.898438 878.476562 915.75 880.648438 916.425781 C 883.050781 917.175781 885.300781 919.574219 887.398438 921.601562 C 889.648438 923.699219 891.824219 926.175781 893.851562 928.949219 C 896.175781 932.101562 899.773438 936.449219 900.226562 939.675781 C 900.601562 942 899.925781 944.398438 898.726562 946.125 C 897.601562 947.851562 895.351562 949.5 893.324219 950.023438 C 891.300781 950.550781 888.449219 950.023438 886.726562 949.273438 C 885.300781 948.675781 884.175781 947.550781 883.351562 946.351562 C 882.523438 945.148438 882.148438 943.949219 881.699219 942.226562 C 880.875 939.226562 879.976562 933.226562 879.824219 930.226562 C 879.75 928.351562 879.523438 927.226562 880.050781 925.800781 C 880.726562 924 882.300781 921.675781 884.023438 920.625 C 885.75 919.574219 888.449219 919.050781 890.476562 919.425781 C 892.425781 919.726562 894.824219 921.300781 896.023438 922.726562 C 897.074219 923.851562 897.898438 926.699219 897.898438 926.699219 " clip-rule="nonzero"/></clipPath><clipPath id="c37755b73a"><path d="M 0 0.804688 L 51.347656 0.804688 L 51.347656 36.601562 L 0 36.601562 Z M 0 0.804688 " clip-rule="nonzero"/></clipPath><clipPath id="ae89c518ed"><path d="M 48.898438 11.699219 C 51.074219 28.800781 50.699219 29.925781 49.726562 31.125 C 48.601562 32.625 46.125 34.425781 44.324219 35.023438 C 42.824219 35.476562 41.25 35.398438 39.824219 35.023438 C 38.476562 34.726562 36.976562 34.125 35.851562 33 C 34.5 31.726562 34.273438 29.25 32.699219 27.148438 C 30.300781 24.074219 23.851562 19.949219 21.601562 17.25 C 20.398438 15.75 19.648438 14.773438 19.351562 13.273438 C 18.898438 11.324219 19.199219 8.25 19.875 6.449219 C 20.476562 4.949219 21.601562 3.75 22.800781 2.851562 C 24 1.949219 25.574219 1.273438 27.074219 1.050781 C 28.574219 0.824219 30.226562 0.976562 31.648438 1.425781 C 33.074219 1.949219 34.648438 2.476562 35.550781 3.898438 C 36.976562 6.148438 37.273438 11.023438 37.273438 15 C 37.351562 19.648438 36.375 26.925781 35.101562 30.226562 C 34.351562 32.101562 33.300781 33.226562 32.398438 34.125 C 31.726562 34.726562 31.273438 35.101562 30.449219 35.398438 C 29.25 35.925781 27.375 36.523438 25.875 36.523438 C 24.375 36.523438 22.5 35.925781 21.300781 35.398438 C 20.476562 35.023438 20.023438 34.648438 19.425781 34.050781 C 18.523438 33.148438 17.25 31.574219 16.726562 30.148438 C 16.199219 28.726562 16.800781 27.226562 16.199219 25.5 C 15.449219 23.023438 10.648438 19.199219 11.476562 17.101562 C 12.523438 14.550781 23.175781 11.101562 25.574219 12.601562 C 27.601562 13.875 27.074219 20.023438 26.773438 22.648438 C 26.625 24.449219 26.101562 25.800781 25.351562 27.148438 C 24.523438 28.425781 23.023438 29.773438 21.898438 30.523438 C 21.148438 31.050781 20.625 31.273438 19.726562 31.5 C 18.449219 31.800781 16.5 32.023438 14.925781 31.726562 C 13.425781 31.5 11.773438 30.75 10.574219 29.773438 C 9.375 28.800781 8.476562 27.675781 7.648438 26.023438 C 6.449219 23.550781 5.101562 18.898438 5.023438 16.199219 C 5.023438 14.324219 5.625 12.675781 6.148438 11.476562 C 6.523438 10.648438 6.824219 10.125 7.5 9.523438 C 8.398438 8.550781 10.273438 7.273438 11.476562 6.675781 C 12.300781 6.300781 12.898438 6.148438 13.800781 6.074219 C 15.074219 6 17.101562 6.074219 18.601562 6.601562 C 20.023438 7.199219 21.523438 8.175781 22.574219 9.300781 C 23.625 10.5 24.449219 11.699219 24.898438 13.574219 C 25.5 16.5 24.976562 22.648438 24.074219 25.5 C 23.550781 27.375 22.800781 28.574219 21.675781 29.773438 C 20.625 30.898438 19.125 31.875 17.625 32.398438 C 16.125 32.851562 14.101562 32.925781 12.824219 32.773438 C 11.851562 32.699219 11.25 32.550781 10.425781 32.101562 C 9.226562 31.574219 7.425781 30.226562 6.523438 29.25 C 5.925781 28.574219 5.625 28.125 5.175781 27.226562 C 4.425781 25.5 3.300781 21.75 2.851562 19.425781 C 2.550781 17.625 2.324219 16.125 2.625 14.550781 C 2.925781 12.976562 3.675781 11.324219 4.648438 10.125 C 5.625 8.851562 7.050781 7.726562 8.476562 7.125 C 9.976562 6.449219 12 6.226562 13.273438 6.226562 C 14.25 6.226562 14.851562 6.375 15.75 6.675781 C 16.949219 7.199219 18.75 8.175781 19.875 9.226562 C 21 10.351562 21.898438 11.625 22.425781 13.425781 C 23.101562 16.199219 22.726562 21.75 21.976562 24.523438 C 21.449219 26.398438 20.699219 27.675781 19.648438 28.875 C 18.601562 30.074219 17.101562 31.050781 15.601562 31.648438 C 14.101562 32.175781 12.300781 32.398438 10.726562 32.175781 C 9.074219 31.949219 7.425781 31.273438 6.074219 30.375 C 4.800781 29.476562 3.523438 27.824219 2.851562 26.699219 C 2.398438 25.875 2.324219 25.5 2.023438 24.375 C 1.351562 21.824219 0.0742188 14.476562 0.0742188 11.625 C 0.0742188 10.125 0.148438 9.449219 0.601562 8.25 C 1.351562 6.675781 2.851562 4.199219 4.574219 3 C 6.300781 1.800781 8.851562 1.125 10.949219 1.199219 C 13.050781 1.351562 15.523438 2.324219 17.101562 3.675781 C 18.75 4.949219 20.101562 7.273438 20.550781 9.300781 C 21 11.324219 20.699219 13.949219 19.875 15.898438 C 18.976562 17.773438 17.175781 19.726562 15.300781 20.699219 C 13.5 21.675781 10.574219 21.898438 8.773438 21.75 C 7.574219 21.675781 6.675781 21.375 5.625 20.699219 C 4.125 19.800781 1.949219 17.851562 1.050781 15.976562 C 0.148438 14.023438 -0.148438 11.398438 0.300781 9.375 C 0.75 7.351562 2.476562 4.949219 3.75 3.675781 C 4.574219 2.773438 5.398438 2.324219 6.601562 1.949219 C 8.25 1.425781 11.175781 1.050781 13.199219 1.574219 C 15.226562 2.101562 17.476562 3.976562 18.675781 5.25 C 19.5 6.226562 19.800781 6.824219 20.25 8.25 C 21.226562 11.101562 22.425781 18.675781 22.273438 22.050781 C 22.199219 24.074219 21.824219 25.425781 21.074219 26.851562 C 20.324219 28.199219 19.125 29.625 17.773438 30.523438 C 16.425781 31.351562 14.476562 31.949219 13.199219 32.175781 C 12.226562 32.324219 11.625 32.324219 10.726562 32.175781 C 9.375 31.949219 7.273438 31.125 6.074219 30.375 C 5.324219 29.925781 4.875 29.476562 4.273438 28.726562 C 3.449219 27.675781 2.398438 26.175781 2.023438 24.375 C 1.5 21.824219 1.949219 17.101562 2.625 14.550781 C 3.074219 12.75 3.898438 11.175781 4.648438 10.125 C 5.175781 9.300781 5.625 8.925781 6.375 8.398438 C 7.5 7.648438 9.300781 6.675781 10.875 6.375 C 12.375 6.074219 14.25 6.226562 15.75 6.675781 C 17.25 7.199219 18.75 8.101562 19.875 9.226562 C 21.074219 10.425781 21.824219 11.851562 22.5 13.726562 C 23.476562 16.199219 24.523438 20.550781 24.449219 23.101562 C 24.375 24.976562 23.699219 26.550781 23.175781 27.75 C 22.726562 28.648438 22.351562 29.101562 21.675781 29.773438 C 20.773438 30.675781 19.125 31.875 17.625 32.398438 C 16.125 32.851562 14.101562 32.925781 12.824219 32.773438 C 11.851562 32.699219 11.25 32.550781 10.425781 32.101562 C 9.226562 31.574219 7.574219 30.449219 6.523438 29.25 C 5.550781 28.050781 4.800781 26.699219 4.425781 24.898438 C 3.898438 22.050781 4.5 16.574219 5.324219 13.800781 C 5.851562 11.925781 6.449219 10.648438 7.5 9.523438 C 8.550781 8.324219 9.976562 7.273438 11.476562 6.675781 C 12.898438 6.148438 14.925781 6 16.199219 6.074219 C 17.175781 6.148438 17.699219 6.226562 18.601562 6.601562 C 19.800781 7.125 21.675781 8.398438 22.574219 9.300781 C 23.25 9.976562 23.550781 10.351562 24 11.324219 C 24.976562 13.5 26.851562 19.648438 26.773438 22.574219 C 26.699219 24.449219 26.101562 25.800781 25.351562 27.148438 C 24.523438 28.425781 23.023438 29.773438 21.898438 30.523438 C 21.148438 31.050781 20.625 31.273438 19.726562 31.5 C 18.449219 31.800781 16.5 32.023438 14.925781 31.726562 C 13.425781 31.5 11.773438 30.75 10.574219 29.773438 C 9.375 28.800781 8.25 27.148438 7.648438 26.023438 C 7.199219 25.199219 7.050781 24.675781 6.898438 23.699219 C 6.75 22.050781 6.824219 19.425781 7.273438 16.875 C 7.875 13.425781 7.875 6.898438 10.726562 4.949219 C 14.175781 2.550781 24.824219 3.824219 28.273438 6.300781 C 30.898438 8.175781 30.898438 12 32.023438 15.300781 C 33.375 19.125 35.773438 24.824219 35.625 27.976562 C 35.550781 29.851562 34.648438 31.273438 33.976562 32.324219 C 33.523438 33.074219 33.148438 33.523438 32.398438 34.125 C 31.425781 34.875 29.476562 35.851562 28.199219 36.226562 C 27.375 36.523438 26.773438 36.601562 25.875 36.523438 C 24.601562 36.449219 22.648438 36.074219 21.375 35.398438 C 20.023438 34.648438 18.675781 33.523438 17.851562 32.25 C 16.949219 30.976562 16.425781 29.101562 16.199219 27.898438 C 16.050781 27 15.898438 26.476562 16.199219 25.5 C 16.800781 23.550781 21.375 19.875 21.601562 17.25 C 21.824219 15.074219 19.125 12.898438 18.976562 10.949219 C 18.824219 9.375 19.125 7.875 19.875 6.449219 C 20.851562 4.726562 22.875 2.550781 24.824219 1.726562 C 26.773438 0.898438 29.476562 0.75 31.648438 1.425781 C 34.050781 2.175781 36.300781 4.574219 38.398438 6.601562 C 40.648438 8.699219 42.824219 11.175781 44.851562 13.949219 C 47.175781 17.101562 50.773438 21.449219 51.226562 24.675781 C 51.601562 27 50.925781 29.398438 49.726562 31.125 C 48.601562 32.851562 46.351562 34.5 44.324219 35.023438 C 42.300781 35.550781 39.449219 35.023438 37.726562 34.273438 C 36.300781 33.675781 35.175781 32.550781 34.351562 31.351562 C 33.523438 30.148438 33.148438 28.949219 32.699219 27.226562 C 31.875 24.226562 30.976562 18.226562 30.824219 15.226562 C 30.75 13.351562 30.523438 12.226562 31.050781 10.800781 C 31.726562 9 33.300781 6.675781 35.023438 5.625 C 36.75 4.574219 39.449219 4.050781 41.476562 4.425781 C 43.425781 4.726562 45.824219 6.300781 47.023438 7.726562 C 48.074219 8.851562 48.898438 11.699219 48.898438 11.699219 " clip-rule="nonzero"/></clipPath><clipPath id="0bc75fce82"><rect x="0" width="52" y="0" height="37"/></clipPath><clipPath id="c3d2158828"><path d="M 781.796875 920.691406 L 796.648438 920.691406 L 796.648438 945.929688 L 781.796875 945.929688 Z M 781.796875 920.691406 " clip-rule="nonzero"/></clipPath><clipPath id="0856d150f8"><path d="M 794.476562 945 C 790.351562 937.949219 790.648438 937.273438 791.023438 937.125 C 791.398438 936.898438 792.226562 937.125 792.601562 937.574219 C 793.199219 938.175781 792.976562 940.273438 793.5 941.25 C 793.949219 942.148438 795.375 942.898438 795.300781 943.425781 C 795.300781 943.875 794.625 944.550781 794.101562 944.398438 C 791.925781 943.949219 782.25 926.023438 781.949219 922.648438 C 781.875 921.75 782.175781 921 782.550781 920.851562 C 783 920.625 784.199219 921.148438 784.425781 921.523438 C 784.574219 921.976562 783.976562 923.175781 783.601562 923.324219 C 783.148438 923.476562 782.023438 922.875 781.875 922.425781 C 781.726562 922.050781 782.101562 921.148438 782.476562 920.925781 C 782.773438 920.699219 783.226562 920.625 783.75 920.851562 C 784.648438 921.226562 785.699219 922.875 786.898438 924.824219 C 789.375 928.875 796.574219 942.074219 796.574219 944.550781 C 796.574219 945.148438 796.351562 945.449219 795.976562 945.675781 C 795.675781 945.898438 794.925781 945.976562 794.398438 945.824219 C 793.5 945.449219 792.226562 944.023438 791.550781 942.75 C 790.800781 941.476562 789.976562 938.925781 790.351562 938.023438 C 790.574219 937.425781 791.324219 936.898438 791.925781 937.050781 C 793.199219 937.351562 796.425781 942.601562 796.574219 944.023438 C 796.574219 944.699219 796.273438 945.300781 795.898438 945.449219 C 795.601562 945.601562 794.476562 945 794.476562 945 " clip-rule="nonzero"/></clipPath><clipPath id="f43920f7ef"><path d="M 0.796875 0.691406 L 15.648438 0.691406 L 15.648438 25.929688 L 0.796875 25.929688 Z M 0.796875 0.691406 " clip-rule="nonzero"/></clipPath><clipPath id="b5dc84511f"><path d="M 13.476562 25 C 9.351562 17.949219 9.648438 17.273438 10.023438 17.125 C 10.398438 16.898438 11.226562 17.125 11.601562 17.574219 C 12.199219 18.175781 11.976562 20.273438 12.5 21.25 C 12.949219 22.148438 14.375 22.898438 14.300781 23.425781 C 14.300781 23.875 13.625 24.550781 13.101562 24.398438 C 10.925781 23.949219 1.25 6.023438 0.949219 2.648438 C 0.875 1.75 1.175781 1 1.550781 0.851562 C 2 0.625 3.199219 1.148438 3.425781 1.523438 C 3.574219 1.976562 2.976562 3.175781 2.601562 3.324219 C 2.148438 3.476562 1.023438 2.875 0.875 2.425781 C 0.726562 2.050781 1.101562 1.148438 1.476562 0.925781 C 1.773438 0.699219 2.226562 0.625 2.75 0.851562 C 3.648438 1.226562 4.699219 2.875 5.898438 4.824219 C 8.375 8.875 15.574219 22.074219 15.574219 24.550781 C 15.574219 25.148438 15.351562 25.449219 14.976562 25.675781 C 14.675781 25.898438 13.925781 25.976562 13.398438 25.824219 C 12.5 25.449219 11.226562 24.023438 10.550781 22.75 C 9.800781 21.476562 8.976562 18.925781 9.351562 18.023438 C 9.574219 17.425781 10.324219 16.898438 10.925781 17.050781 C 12.199219 17.351562 15.425781 22.601562 15.574219 24.023438 C 15.574219 24.699219 15.273438 25.300781 14.898438 25.449219 C 14.601562 25.601562 13.476562 25 13.476562 25 " clip-rule="nonzero"/></clipPath><clipPath id="193b57bb97"><rect x="0" width="16" y="0" height="26"/></clipPath><clipPath id="3f758cb722"><path d="M 789.859375 938.761719 L 796.210938 938.761719 L 796.210938 945.210938 L 789.859375 945.210938 Z M 789.859375 938.761719 " clip-rule="nonzero"/></clipPath><clipPath id="ddbc8f11a1"><path d="M 794.175781 945.074219 C 789.824219 939.675781 790.125 939 790.5 938.851562 C 790.875 938.699219 792 939 792.148438 939.375 C 792.300781 939.75 791.625 941.023438 791.175781 941.101562 C 790.875 941.175781 790.125 940.648438 789.976562 940.351562 C 789.824219 940.050781 789.898438 939.449219 790.125 939.226562 C 790.425781 938.925781 791.25 938.699219 791.851562 938.925781 C 792.976562 939.375 794.925781 941.773438 795.601562 942.976562 C 795.976562 943.726562 796.351562 944.773438 796.125 945.074219 C 795.824219 945.375 794.175781 945.074219 794.175781 945.074219 " clip-rule="nonzero"/></clipPath><clipPath id="2cf1bb6408"><path d="M 0.859375 0.761719 L 7.210938 0.761719 L 7.210938 7.210938 L 0.859375 7.210938 Z M 0.859375 0.761719 " clip-rule="nonzero"/></clipPath><clipPath id="38c74313ac"><path d="M 5.175781 7.074219 C 0.824219 1.675781 1.125 1 1.5 0.851562 C 1.875 0.699219 3 1 3.148438 1.375 C 3.300781 1.75 2.625 3.023438 2.175781 3.101562 C 1.875 3.175781 1.125 2.648438 0.976562 2.351562 C 0.824219 2.050781 0.898438 1.449219 1.125 1.226562 C 1.425781 0.925781 2.25 0.699219 2.851562 0.925781 C 3.976562 1.375 5.925781 3.773438 6.601562 4.976562 C 6.976562 5.726562 7.351562 6.773438 7.125 7.074219 C 6.824219 7.375 5.175781 7.074219 5.175781 7.074219 " clip-rule="nonzero"/></clipPath><clipPath id="49073c9035"><rect x="0" width="8" y="0" height="8"/></clipPath><clipPath id="7c39af9554"><path d="M 790.085938 939.511719 L 792.613281 939.511719 L 792.613281 942.101562 L 790.085938 942.101562 Z M 790.085938 939.511719 " clip-rule="nonzero"/></clipPath><clipPath id="989c314c65"><path d="M 792.375 940.125 C 792 942 790.574219 941.699219 790.5 941.324219 C 790.351562 941.023438 791.25 939.824219 791.550781 939.824219 C 791.925781 939.824219 792.675781 941.023438 792.601562 941.398438 C 792.523438 941.699219 792.074219 942 791.773438 942.074219 C 791.398438 942.148438 790.726562 941.925781 790.5 941.625 C 790.199219 941.25 789.976562 940.351562 790.199219 940.050781 C 790.425781 939.675781 791.773438 939.523438 791.773438 939.523438 " clip-rule="nonzero"/></clipPath><clipPath id="a0a3c47af7"><path d="M 0.0859375 0.511719 L 2.613281 0.511719 L 2.613281 3.101562 L 0.0859375 3.101562 Z M 0.0859375 0.511719 " clip-rule="nonzero"/></clipPath><clipPath id="49d8f571e5"><path d="M 2.375 1.125 C 2 3 0.574219 2.699219 0.5 2.324219 C 0.351562 2.023438 1.25 0.824219 1.550781 0.824219 C 1.925781 0.824219 2.675781 2.023438 2.601562 2.398438 C 2.523438 2.699219 2.074219 3 1.773438 3.074219 C 1.398438 3.148438 0.726562 2.925781 0.5 2.625 C 0.199219 2.25 -0.0234375 1.351562 0.199219 1.050781 C 0.425781 0.675781 1.773438 0.523438 1.773438 0.523438 " clip-rule="nonzero"/></clipPath><clipPath id="24606f59d2"><rect x="0" width="3" y="0" height="4"/></clipPath><clipPath id="0080034495"><path d="M 790.421875 938.945312 L 797.601562 938.945312 L 797.601562 948.378906 L 790.421875 948.378906 Z M 790.421875 938.945312 " clip-rule="nonzero"/></clipPath><clipPath id="65aaec6132"><path d="M 792.300781 939.148438 C 797.550781 945.074219 797.851562 946.875 797.476562 947.625 C 797.25 948.074219 796.574219 948.375 796.199219 948.375 C 795.75 948.300781 795.148438 947.699219 795.074219 947.25 C 795.074219 946.800781 795.824219 945.824219 796.273438 945.824219 C 796.648438 945.824219 797.699219 947.101562 797.550781 947.476562 C 797.476562 947.851562 796.050781 948.375 795.523438 948.074219 C 794.851562 947.699219 795.148438 945.148438 794.398438 943.949219 C 793.5 942.601562 790.726562 941.476562 790.5 940.5 C 790.351562 939.976562 790.648438 939.300781 790.949219 939.074219 C 791.25 938.851562 792.300781 939.148438 792.300781 939.148438 " clip-rule="nonzero"/></clipPath><clipPath id="d175d1d689"><path d="M 0.421875 0.945312 L 7.601562 0.945312 L 7.601562 10.378906 L 0.421875 10.378906 Z M 0.421875 0.945312 " clip-rule="nonzero"/></clipPath><clipPath id="ccb5ef3c70"><path d="M 2.300781 1.148438 C 7.550781 7.074219 7.851562 8.875 7.476562 9.625 C 7.25 10.074219 6.574219 10.375 6.199219 10.375 C 5.75 10.300781 5.148438 9.699219 5.074219 9.25 C 5.074219 8.800781 5.824219 7.824219 6.273438 7.824219 C 6.648438 7.824219 7.699219 9.101562 7.550781 9.476562 C 7.476562 9.851562 6.050781 10.375 5.523438 10.074219 C 4.851562 9.699219 5.148438 7.148438 4.398438 5.949219 C 3.5 4.601562 0.726562 3.476562 0.5 2.5 C 0.351562 1.976562 0.648438 1.300781 0.949219 1.074219 C 1.25 0.851562 2.300781 1.148438 2.300781 1.148438 " clip-rule="nonzero"/></clipPath><clipPath id="c19414647b"><rect x="0" width="8" y="0" height="11"/></clipPath><clipPath id="7b73785e1a"><path d="M 785.371094 936.722656 L 797.402344 936.722656 L 797.402344 946.925781 L 785.371094 946.925781 Z M 785.371094 936.722656 " clip-rule="nonzero"/></clipPath><clipPath id="00253c03d9"><path d="M 795.074219 945.976562 C 792.226562 940.125 786 939.449219 785.476562 938.398438 C 785.324219 938.023438 785.550781 937.5 785.773438 937.199219 C 786 936.976562 786.601562 936.675781 786.976562 936.824219 C 787.351562 936.976562 788.101562 937.949219 788.023438 938.324219 C 787.949219 938.773438 786.898438 939.449219 786.449219 939.375 C 786 939.300781 785.398438 938.550781 785.476562 938.101562 C 785.476562 937.648438 786.074219 936.976562 786.824219 936.824219 C 788.25 936.449219 792.976562 938.25 794.550781 939.375 C 795.523438 940.125 795.976562 940.949219 796.425781 941.925781 C 796.949219 943.050781 797.550781 944.925781 797.324219 945.75 C 797.25 946.273438 796.726562 946.875 796.351562 946.875 C 795.898438 946.949219 795.074219 945.976562 795.074219 945.976562 " clip-rule="nonzero"/></clipPath><clipPath id="af3051290c"><path d="M 0.371094 0.722656 L 12.402344 0.722656 L 12.402344 10.925781 L 0.371094 10.925781 Z M 0.371094 0.722656 " clip-rule="nonzero"/></clipPath><clipPath id="c0f69f2bee"><path d="M 10.074219 9.976562 C 7.226562 4.125 1 3.449219 0.476562 2.398438 C 0.324219 2.023438 0.550781 1.5 0.773438 1.199219 C 1 0.976562 1.601562 0.675781 1.976562 0.824219 C 2.351562 0.976562 3.101562 1.949219 3.023438 2.324219 C 2.949219 2.773438 1.898438 3.449219 1.449219 3.375 C 1 3.300781 0.398438 2.550781 0.476562 2.101562 C 0.476562 1.648438 1.074219 0.976562 1.824219 0.824219 C 3.25 0.449219 7.976562 2.25 9.550781 3.375 C 10.523438 4.125 10.976562 4.949219 11.425781 5.925781 C 11.949219 7.050781 12.550781 8.925781 12.324219 9.75 C 12.25 10.273438 11.726562 10.875 11.351562 10.875 C 10.898438 10.949219 10.074219 9.976562 10.074219 9.976562 " clip-rule="nonzero"/></clipPath><clipPath id="9d63ad5f7b"><rect x="0" width="13" y="0" height="11"/></clipPath><clipPath id="eb238dc686"><path d="M 843.792969 911.070312 L 856.3125 911.070312 L 856.3125 946.671875 L 843.792969 946.671875 Z M 843.792969 911.070312 " clip-rule="nonzero"/></clipPath><clipPath id="6a239ee08c"><path d="M 854.25 946.351562 C 849.375 938.324219 848.175781 934.875 847.125 930.898438 C 845.773438 925.5 842.851562 912.675781 844.199219 911.476562 C 844.574219 911.101562 845.476562 911.324219 846.074219 911.851562 C 847.5 913.125 848.773438 919.875 849.449219 922.800781 C 849.898438 924.75 850.574219 926.851562 850.199219 927.75 C 850.050781 928.273438 849.601562 928.648438 849.226562 928.648438 C 848.851562 928.726562 848.324219 928.5 848.023438 928.050781 C 847.5 927.226562 847.425781 923.925781 847.949219 923.023438 C 848.175781 922.574219 848.773438 922.351562 849.148438 922.425781 C 849.523438 922.425781 849.898438 922.726562 850.125 923.25 C 850.726562 924.449219 851.175781 928.949219 850.726562 930.148438 C 850.5 930.675781 850.125 930.976562 849.824219 931.050781 C 849.449219 931.125 848.851562 930.976562 848.625 930.523438 C 847.875 929.398438 847.949219 923.550781 848.625 922.425781 C 848.851562 921.976562 849.375 921.824219 849.75 921.824219 C 850.050781 921.898438 850.425781 922.125 850.648438 922.648438 C 851.476562 924.148438 852.824219 931.425781 852.074219 932.851562 C 851.699219 933.375 850.800781 933.824219 850.425781 933.523438 C 849.601562 933 849.523438 926.101562 850.199219 924.898438 C 850.425781 924.449219 850.875 924.148438 851.175781 924.226562 C 851.476562 924.226562 852.148438 924.976562 852.074219 925.273438 C 852.074219 925.648438 851.25 926.25 850.949219 926.175781 C 850.574219 926.101562 850.125 925.351562 850.125 924.976562 C 850.199219 924.675781 850.726562 924.226562 851.023438 924.226562 C 851.398438 924.226562 851.851562 924.601562 852.074219 925.199219 C 852.675781 926.550781 852.824219 931.949219 852 933.074219 C 851.625 933.523438 850.875 933.824219 850.425781 933.523438 C 849.300781 932.851562 847.949219 923.773438 848.625 922.425781 C 848.851562 921.976562 849.375 921.824219 849.75 921.824219 C 850.050781 921.898438 850.425781 922.199219 850.648438 922.648438 C 851.25 923.851562 851.25 928.5 850.726562 929.851562 C 850.5 930.449219 850.199219 930.976562 849.824219 931.050781 C 849.449219 931.125 848.925781 930.898438 848.625 930.523438 C 847.875 929.476562 847.273438 924.523438 847.800781 923.324219 C 848.101562 922.726562 848.699219 922.351562 849.148438 922.425781 C 849.523438 922.425781 849.976562 922.949219 850.199219 923.550781 C 850.574219 924.523438 850.574219 927.300781 850.125 928.050781 C 849.898438 928.5 849.300781 928.726562 848.925781 928.648438 C 848.625 928.648438 848.175781 928.273438 847.949219 927.824219 C 847.5 926.925781 847.875 925.125 847.425781 923.398438 C 846.824219 920.476562 843.601562 914.324219 843.824219 912.523438 C 843.898438 911.773438 844.273438 911.324219 844.648438 911.175781 C 845.023438 911.023438 845.550781 911.101562 845.925781 911.625 C 847.726562 913.574219 848.550781 928.875 850.800781 935.023438 C 852.300781 939.300781 856.199219 943.574219 856.273438 945.300781 C 856.273438 945.898438 856.125 946.351562 855.824219 946.574219 C 855.449219 946.726562 854.25 946.351562 854.25 946.351562 " clip-rule="nonzero"/></clipPath><clipPath id="659a3026a0"><path d="M 0.792969 0.0703125 L 13.3125 0.0703125 L 13.3125 35.671875 L 0.792969 35.671875 Z M 0.792969 0.0703125 " clip-rule="nonzero"/></clipPath><clipPath id="b631b4e482"><path d="M 11.25 35.351562 C 6.375 27.324219 5.175781 23.875 4.125 19.898438 C 2.773438 14.5 -0.148438 1.675781 1.199219 0.476562 C 1.574219 0.101562 2.476562 0.324219 3.074219 0.851562 C 4.5 2.125 5.773438 8.875 6.449219 11.800781 C 6.898438 13.75 7.574219 15.851562 7.199219 16.75 C 7.050781 17.273438 6.601562 17.648438 6.226562 17.648438 C 5.851562 17.726562 5.324219 17.5 5.023438 17.050781 C 4.5 16.226562 4.425781 12.925781 4.949219 12.023438 C 5.175781 11.574219 5.773438 11.351562 6.148438 11.425781 C 6.523438 11.425781 6.898438 11.726562 7.125 12.25 C 7.726562 13.449219 8.175781 17.949219 7.726562 19.148438 C 7.5 19.675781 7.125 19.976562 6.824219 20.050781 C 6.449219 20.125 5.851562 19.976562 5.625 19.523438 C 4.875 18.398438 4.949219 12.550781 5.625 11.425781 C 5.851562 10.976562 6.375 10.824219 6.75 10.824219 C 7.050781 10.898438 7.425781 11.125 7.648438 11.648438 C 8.476562 13.148438 9.824219 20.425781 9.074219 21.851562 C 8.699219 22.375 7.800781 22.824219 7.425781 22.523438 C 6.601562 22 6.523438 15.101562 7.199219 13.898438 C 7.425781 13.449219 7.875 13.148438 8.175781 13.226562 C 8.476562 13.226562 9.148438 13.976562 9.074219 14.273438 C 9.074219 14.648438 8.25 15.25 7.949219 15.175781 C 7.574219 15.101562 7.125 14.351562 7.125 13.976562 C 7.199219 13.675781 7.726562 13.226562 8.023438 13.226562 C 8.398438 13.226562 8.851562 13.601562 9.074219 14.199219 C 9.675781 15.550781 9.824219 20.949219 9 22.074219 C 8.625 22.523438 7.875 22.824219 7.425781 22.523438 C 6.300781 21.851562 4.949219 12.773438 5.625 11.425781 C 5.851562 10.976562 6.375 10.824219 6.75 10.824219 C 7.050781 10.898438 7.425781 11.199219 7.648438 11.648438 C 8.25 12.851562 8.25 17.5 7.726562 18.851562 C 7.5 19.449219 7.199219 19.976562 6.824219 20.050781 C 6.449219 20.125 5.925781 19.898438 5.625 19.523438 C 4.875 18.476562 4.273438 13.523438 4.800781 12.324219 C 5.101562 11.726562 5.699219 11.351562 6.148438 11.425781 C 6.523438 11.425781 6.976562 11.949219 7.199219 12.550781 C 7.574219 13.523438 7.574219 16.300781 7.125 17.050781 C 6.898438 17.5 6.300781 17.726562 5.925781 17.648438 C 5.625 17.648438 5.175781 17.273438 4.949219 16.824219 C 4.5 15.925781 4.875 14.125 4.425781 12.398438 C 3.824219 9.476562 0.601562 3.324219 0.824219 1.523438 C 0.898438 0.773438 1.273438 0.324219 1.648438 0.175781 C 2.023438 0.0234375 2.550781 0.101562 2.925781 0.625 C 4.726562 2.574219 5.550781 17.875 7.800781 24.023438 C 9.300781 28.300781 13.199219 32.574219 13.273438 34.300781 C 13.273438 34.898438 13.125 35.351562 12.824219 35.574219 C 12.449219 35.726562 11.25 35.351562 11.25 35.351562 " clip-rule="nonzero"/></clipPath><clipPath id="ac421c356d"><rect x="0" width="14" y="0" height="36"/></clipPath><clipPath id="d3c5d62ad9"><path d="M 838.632812 888.523438 L 856.273438 888.523438 L 856.273438 947.480469 L 838.632812 947.480469 Z M 838.632812 888.523438 " clip-rule="nonzero"/></clipPath><clipPath id="08e6ae01f6"><path d="M 853.351562 947.25 C 846.300781 938.476562 845.398438 936.226562 844.574219 933.449219 C 843.675781 930.148438 843.300781 926.324219 842.925781 922.199219 C 842.476562 917.476562 841.5 908.851562 842.324219 906.601562 C 842.625 905.851562 843 905.398438 843.449219 905.324219 C 843.824219 905.25 844.425781 905.476562 844.726562 906 C 845.476562 907.199219 844.648438 911.550781 845.023438 914.324219 C 845.324219 917.175781 846 919.574219 846.824219 922.800781 C 847.875 927.148438 849.75 934.050781 851.175781 937.949219 C 852.074219 940.425781 853.875 942.675781 853.726562 943.875 C 853.726562 944.476562 853.351562 945 852.976562 945.148438 C 852.601562 945.300781 851.773438 945.074219 851.398438 944.625 C 850.574219 943.726562 850.050781 939.601562 850.351562 938.476562 C 850.5 938.023438 850.800781 937.726562 851.101562 937.574219 C 851.476562 937.425781 852.148438 937.5 852.523438 937.875 C 853.050781 938.476562 853.125 941.476562 852.75 942.375 C 852.523438 942.898438 852 943.199219 851.550781 943.351562 C 851.101562 943.5 850.574219 943.425781 850.050781 943.199219 C 849.449219 942.976562 848.773438 942.523438 848.175781 941.773438 C 847.273438 940.726562 846.148438 938.625 845.699219 936.976562 C 845.25 935.324219 844.949219 932.851562 845.324219 931.949219 C 845.550781 931.5 845.851562 931.125 846.226562 931.050781 C 846.675781 930.976562 847.273438 931.125 847.648438 931.574219 C 848.476562 932.476562 848.398438 935.699219 849.226562 937.425781 C 849.898438 938.925781 851.925781 940.273438 852.074219 941.476562 C 852.226562 942.375 851.699219 943.648438 851.175781 943.875 C 850.648438 944.101562 849.375 943.351562 848.699219 942.75 C 848.101562 942.226562 847.726562 941.625 847.199219 940.648438 C 846.226562 938.925781 845.023438 936.675781 844.050781 933.226562 C 842.023438 926.023438 837.75 904.425781 838.800781 898.800781 C 839.175781 896.851562 840 896.101562 840.976562 895.050781 C 841.875 894 842.851562 893.324219 844.425781 892.5 C 846.976562 891.148438 853.351562 888.300781 855.074219 888.601562 C 855.675781 888.75 856.125 889.273438 856.199219 889.574219 C 856.273438 889.949219 855.824219 890.625 855.449219 890.625 C 855.148438 890.699219 854.101562 889.949219 854.101562 889.574219 C 854.101562 889.273438 854.625 888.75 854.925781 888.601562 C 855.226562 888.523438 855.75 888.675781 855.898438 888.898438 C 856.050781 889.199219 855.976562 890.175781 855.601562 890.625 C 854.925781 891.300781 852.824219 891.074219 851.25 891.675781 C 849.300781 892.5 846.375 894.226562 844.800781 895.273438 C 843.824219 895.949219 843.148438 896.324219 842.625 897 C 842.101562 897.675781 841.726562 898.125 841.5 899.324219 C 840.824219 903.601562 844.5 922.351562 845.699219 928.648438 C 846.226562 931.648438 846.449219 933.074219 847.199219 935.175781 C 847.949219 937.351562 850.125 940.199219 850.199219 941.476562 C 850.273438 942.074219 850.125 942.675781 849.824219 942.75 C 849.375 942.824219 848.023438 940.351562 847.351562 939.074219 C 846.675781 937.800781 846.148438 936.300781 845.851562 935.023438 C 845.550781 933.824219 845.175781 932.25 845.476562 931.648438 C 845.699219 931.273438 846.226562 931.050781 846.523438 931.050781 C 846.898438 931.050781 847.425781 931.199219 847.648438 931.574219 C 848.101562 932.25 847.5 933.898438 847.800781 935.25 C 848.25 937.125 850.050781 941.550781 850.425781 941.476562 C 850.726562 941.476562 849.976562 938.851562 850.425781 938.175781 C 850.800781 937.726562 851.773438 937.351562 852.226562 937.648438 C 853.125 938.175781 853.949219 942.675781 853.726562 943.875 C 853.648438 944.476562 853.351562 944.925781 852.976562 945.148438 C 852.675781 945.300781 852.226562 945.300781 851.851562 945 C 851.101562 944.550781 850.574219 943.199219 849.824219 941.398438 C 848.101562 937.199219 844.648438 924.675781 843.449219 919.5 C 842.773438 916.800781 842.476562 915.300781 842.324219 913.125 C 842.101562 910.949219 841.949219 907.875 842.324219 906.601562 C 842.550781 906 842.773438 905.476562 843.148438 905.398438 C 843.523438 905.25 844.273438 905.398438 844.726562 906 C 846 907.800781 845.023438 917.398438 845.550781 922.273438 C 845.925781 926.25 846.375 930.074219 847.199219 933.148438 C 847.800781 935.550781 848.476562 937.425781 849.675781 939.449219 C 851.023438 941.699219 854.925781 944.476562 855.148438 945.898438 C 855.300781 946.574219 855 947.175781 854.625 947.398438 C 854.324219 947.550781 853.351562 947.25 853.351562 947.25 " clip-rule="nonzero"/></clipPath><clipPath id="61878b5363"><path d="M 0.632812 0.523438 L 18.273438 0.523438 L 18.273438 59.480469 L 0.632812 59.480469 Z M 0.632812 0.523438 " clip-rule="nonzero"/></clipPath><clipPath id="3e5f5cf742"><path d="M 15.351562 59.25 C 8.300781 50.476562 7.398438 48.226562 6.574219 45.449219 C 5.675781 42.148438 5.300781 38.324219 4.925781 34.199219 C 4.476562 29.476562 3.5 20.851562 4.324219 18.601562 C 4.625 17.851562 5 17.398438 5.449219 17.324219 C 5.824219 17.25 6.425781 17.476562 6.726562 18 C 7.476562 19.199219 6.648438 23.550781 7.023438 26.324219 C 7.324219 29.175781 8 31.574219 8.824219 34.800781 C 9.875 39.148438 11.75 46.050781 13.175781 49.949219 C 14.074219 52.425781 15.875 54.675781 15.726562 55.875 C 15.726562 56.476562 15.351562 57 14.976562 57.148438 C 14.601562 57.300781 13.773438 57.074219 13.398438 56.625 C 12.574219 55.726562 12.050781 51.601562 12.351562 50.476562 C 12.5 50.023438 12.800781 49.726562 13.101562 49.574219 C 13.476562 49.425781 14.148438 49.5 14.523438 49.875 C 15.050781 50.476562 15.125 53.476562 14.75 54.375 C 14.523438 54.898438 14 55.199219 13.550781 55.351562 C 13.101562 55.5 12.574219 55.425781 12.050781 55.199219 C 11.449219 54.976562 10.773438 54.523438 10.175781 53.773438 C 9.273438 52.726562 8.148438 50.625 7.699219 48.976562 C 7.25 47.324219 6.949219 44.851562 7.324219 43.949219 C 7.550781 43.5 7.851562 43.125 8.226562 43.050781 C 8.675781 42.976562 9.273438 43.125 9.648438 43.574219 C 10.476562 44.476562 10.398438 47.699219 11.226562 49.425781 C 11.898438 50.925781 13.925781 52.273438 14.074219 53.476562 C 14.226562 54.375 13.699219 55.648438 13.175781 55.875 C 12.648438 56.101562 11.375 55.351562 10.699219 54.75 C 10.101562 54.226562 9.726562 53.625 9.199219 52.648438 C 8.226562 50.925781 7.023438 48.675781 6.050781 45.226562 C 4.023438 38.023438 -0.25 16.425781 0.800781 10.800781 C 1.175781 8.851562 2 8.101562 2.976562 7.050781 C 3.875 6 4.851562 5.324219 6.425781 4.5 C 8.976562 3.148438 15.351562 0.300781 17.074219 0.601562 C 17.675781 0.75 18.125 1.273438 18.199219 1.574219 C 18.273438 1.949219 17.824219 2.625 17.449219 2.625 C 17.148438 2.699219 16.101562 1.949219 16.101562 1.574219 C 16.101562 1.273438 16.625 0.75 16.925781 0.601562 C 17.226562 0.523438 17.75 0.675781 17.898438 0.898438 C 18.050781 1.199219 17.976562 2.175781 17.601562 2.625 C 16.925781 3.300781 14.824219 3.074219 13.25 3.675781 C 11.300781 4.5 8.375 6.226562 6.800781 7.273438 C 5.824219 7.949219 5.148438 8.324219 4.625 9 C 4.101562 9.675781 3.726562 10.125 3.5 11.324219 C 2.824219 15.601562 6.5 34.351562 7.699219 40.648438 C 8.226562 43.648438 8.449219 45.074219 9.199219 47.175781 C 9.949219 49.351562 12.125 52.199219 12.199219 53.476562 C 12.273438 54.074219 12.125 54.675781 11.824219 54.75 C 11.375 54.824219 10.023438 52.351562 9.351562 51.074219 C 8.675781 49.800781 8.148438 48.300781 7.851562 47.023438 C 7.550781 45.824219 7.175781 44.25 7.476562 43.648438 C 7.699219 43.273438 8.226562 43.050781 8.523438 43.050781 C 8.898438 43.050781 9.425781 43.199219 9.648438 43.574219 C 10.101562 44.25 9.5 45.898438 9.800781 47.25 C 10.25 49.125 12.050781 53.550781 12.425781 53.476562 C 12.726562 53.476562 11.976562 50.851562 12.425781 50.175781 C 12.800781 49.726562 13.773438 49.351562 14.226562 49.648438 C 15.125 50.175781 15.949219 54.675781 15.726562 55.875 C 15.648438 56.476562 15.351562 56.925781 14.976562 57.148438 C 14.675781 57.300781 14.226562 57.300781 13.851562 57 C 13.101562 56.550781 12.574219 55.199219 11.824219 53.398438 C 10.101562 49.199219 6.648438 36.675781 5.449219 31.5 C 4.773438 28.800781 4.476562 27.300781 4.324219 25.125 C 4.101562 22.949219 3.949219 19.875 4.324219 18.601562 C 4.550781 18 4.773438 17.476562 5.148438 17.398438 C 5.523438 17.25 6.273438 17.398438 6.726562 18 C 8 19.800781 7.023438 29.398438 7.550781 34.273438 C 7.925781 38.25 8.375 42.074219 9.199219 45.148438 C 9.800781 47.550781 10.476562 49.425781 11.675781 51.449219 C 13.023438 53.699219 16.925781 56.476562 17.148438 57.898438 C 17.300781 58.574219 17 59.175781 16.625 59.398438 C 16.324219 59.550781 15.351562 59.25 15.351562 59.25 " clip-rule="nonzero"/></clipPath><clipPath id="c8c6750707"><rect x="0" width="19" y="0" height="60"/></clipPath></defs><g transform="matrix(1, 0, 0, 1, 708, 320)"><g clip-path="url(#a5b4e7bb83)"><g fill="#ffffff" fill-opacity="1"><g transform="translate(2.419835, 621.999899)"><g><path d="M 602.109375 107.96875 C 584.328125 112.632812 568.554688 114.96875 554.796875 114.96875 C 541.035156 114.96875 528.863281 114.117188 518.28125 112.421875 C 507.695312 110.722656 496.367188 107.4375 484.296875 102.5625 C 472.234375 97.695312 460.910156 92.085938 450.328125 85.734375 C 439.742188 79.390625 429.15625 71.5625 418.5625 62.25 C 399.082031 46.582031 381.40625 29.644531 365.53125 11.4375 C 349.65625 -6.769531 319.0625 -40.960938 273.75 -91.140625 C 228.445312 -141.316406 198.382812 -174.660156 183.5625 -191.171875 C 168.738281 -207.691406 157.304688 -216.375 149.265625 -217.21875 L 149.265625 -223.578125 C 173.816406 -223.578125 190.222656 -224.101562 198.484375 -225.15625 C 206.742188 -226.21875 215.53125 -228.125 224.84375 -230.875 C 234.15625 -233.625 241.988281 -237.332031 248.34375 -242 C 273.320312 -258.082031 285.8125 -284.757812 285.8125 -322.03125 C 285.8125 -352.9375 278.929688 -377.703125 265.171875 -396.328125 C 251.410156 -414.960938 232.039062 -424.492188 207.0625 -424.921875 L 128.296875 -424.921875 L 128.296875 -46.359375 C 128.296875 -35.773438 132.210938 -26.457031 140.046875 -18.40625 C 147.878906 -10.363281 157.515625 -6.34375 168.953125 -6.34375 L 176.578125 -6.34375 L 177.203125 0 L 38.109375 0 L 38.109375 -6.34375 L 46.359375 -6.34375 C 56.953125 -6.34375 66.269531 -10.15625 74.3125 -17.78125 C 82.351562 -25.40625 86.585938 -34.722656 87.015625 -45.734375 L 87.015625 -398.25 C 86.585938 -409.25 82.457031 -418.664062 74.625 -426.5 C 66.789062 -434.332031 57.367188 -438.25 46.359375 -438.25 L 38.109375 -438.25 L 38.109375 -444.609375 L 209.59375 -444.609375 C 246.863281 -444.609375 276.820312 -434.128906 299.46875 -413.171875 C 322.125 -392.210938 333.453125 -364.476562 333.453125 -329.96875 C 333.453125 -295.457031 323.078125 -265.816406 302.328125 -241.046875 C 281.585938 -216.273438 256.179688 -203.890625 226.109375 -203.890625 C 226.109375 -203.890625 225.898438 -203.890625 225.484375 -203.890625 C 239.878906 -188.640625 256.179688 -170.851562 274.390625 -150.53125 C 347.640625 -69.65625 394.640625 -18.84375 415.390625 1.90625 C 436.140625 22.65625 454.453125 39.695312 470.328125 53.03125 C 486.210938 66.375 500.289062 76.21875 512.5625 82.5625 C 537.539062 96.113281 562.3125 102.890625 586.875 102.890625 C 591.945312 102.890625 597.023438 102.46875 602.109375 101.625 Z M 602.109375 107.96875 "/></g></g></g></g></g><g transform="matrix(1, 0, 0, 1, 404, 294)"><g clip-path="url(#bad37360e1)"><g clip-path="url(#683d781edf)"><g fill="#ffffff" fill-opacity="1"><g transform="translate(6.711775, 622.181239)"><g><path d="M 75.59375 -466.203125 C 103.113281 -477.640625 129.578125 -483.359375 154.984375 -483.359375 C 176.148438 -483.359375 197.957031 -475.523438 220.40625 -459.859375 C 232.6875 -451.390625 246.445312 -434.875 261.6875 -410.3125 C 271.851562 -393.375 284.769531 -362.675781 300.4375 -318.21875 L 377.921875 -98.453125 C 395.703125 -49.328125 413.800781 -10.265625 432.21875 18.734375 C 450.644531 47.742188 467.476562 69.550781 482.71875 84.15625 C 497.96875 98.769531 513.84375 109.039062 530.34375 114.96875 C 546.851562 120.894531 560.507812 123.859375 571.3125 123.859375 C 582.113281 123.859375 591.75 123.007812 600.21875 121.3125 L 600.84375 127.671875 C 580.519531 134.441406 560.617188 137.828125 541.140625 137.828125 C 521.671875 137.828125 502.195312 132.847656 482.71875 122.890625 C 463.238281 112.941406 445.03125 99.078125 428.09375 81.296875 C 391.6875 44.460938 360.78125 -11.640625 335.375 -87.015625 L 310.59375 -159.421875 L 136.5625 -159.421875 L 92.734375 -46.359375 C 90.617188 -41.285156 89.5625 -36.207031 89.5625 -31.125 C 89.5625 -26.039062 91.785156 -20.640625 96.234375 -14.921875 C 100.679688 -9.203125 107.5625 -6.34375 116.875 -6.34375 L 121.953125 -6.34375 L 121.953125 0 L -5.703125 0 L -5.703125 -6.34375 L 0 -6.34375 C 10.164062 -6.34375 20.117188 -9.410156 29.859375 -15.546875 C 39.597656 -21.691406 47.644531 -30.90625 54 -43.1875 L 211.515625 -420.46875 C 188.648438 -453.070312 160.28125 -469.375 126.40625 -469.375 C 111.15625 -469.375 94.851562 -466.203125 77.5 -459.859375 Z M 143.546875 -178.484375 L 304.25 -178.484375 L 254.0625 -326.46875 C 244.320312 -354.84375 235.429688 -377.070312 227.390625 -393.15625 Z M 143.546875 -178.484375 "/></g></g></g></g></g></g><g transform="matrix(1, 0, 0, 1, 435, 780)"><g clip-path="url(#8b9b89724c)"><path fill="#dc416d" d="M 18.199219 3.144531 L 611.722656 3.144531 C 615.96875 3.144531 620.039062 4.832031 623.042969 7.835938 C 626.042969 10.835938 627.730469 14.90625 627.730469 19.152344 L 627.730469 51.167969 C 627.730469 55.410156 626.042969 59.484375 623.042969 62.484375 C 620.039062 65.484375 615.96875 67.171875 611.722656 67.171875 L 18.199219 67.171875 C 13.953125 67.171875 9.882812 65.484375 6.882812 62.484375 C 3.878906 59.484375 2.191406 55.410156 2.191406 51.167969 L 2.191406 19.152344 C 2.191406 14.90625 3.878906 10.835938 6.882812 7.835938 C 9.882812 4.832031 13.953125 3.144531 18.199219 3.144531 Z M 18.199219 3.144531 " fill-opacity="1" fill-rule="nonzero"/><g fill="#ffffff" fill-opacity="1"><g transform="translate(33.464348, 47.159499)"><g><path d="M -0.40625 0 L 11.734375 -28.4375 L 16.140625 -28.4375 L 27.796875 0 L 22.5 0 L 19.9375 -6.484375 L 7.53125 -6.484375 L 4.890625 0 Z M 9.328125 -10.859375 L 18.265625 -10.859375 L 13.859375 -22.03125 Z M 9.328125 -10.859375 "/></g></g></g><g fill="#ffffff" fill-opacity="1"><g transform="translate(91.496097, 47.159499)"><g><path d="M 2.921875 0 L 2.921875 -28.4375 L 8.125 -28.4375 L 8.125 -4.5625 L 20.78125 -4.5625 L 20.421875 0 Z M 2.921875 0 "/></g></g></g><g fill="#ffffff" fill-opacity="1"><g transform="translate(142.562378, 47.159499)"><g><path d="M 24.34375 -28.4375 L 14.421875 -12.734375 L 14.421875 0 L 9.171875 0 L 9.171875 -12.609375 L -1.046875 -28.4375 L 4.84375 -28.4375 L 12.015625 -17.265625 L 18.90625 -28.4375 Z M 24.34375 -28.4375 "/></g></g></g><g fill="#ffffff" fill-opacity="1"><g transform="translate(196.550976, 47.159499)"><g><path d="M 11.78125 0.359375 C 8.4375 0.359375 5.828125 -0.382812 3.953125 -1.875 C 2.085938 -3.375 1.023438 -5.566406 0.765625 -8.453125 L 5.640625 -9.171875 C 6.128906 -5.753906 8.253906 -4.046875 12.015625 -4.046875 C 13.640625 -4.046875 14.90625 -4.367188 15.8125 -5.015625 C 16.726562 -5.671875 17.1875 -6.585938 17.1875 -7.765625 C 17.1875 -8.835938 16.726562 -9.644531 15.8125 -10.1875 C 14.90625 -10.738281 13.453125 -11.253906 11.453125 -11.734375 C 9.585938 -12.191406 7.984375 -12.734375 6.640625 -13.359375 C 5.304688 -13.984375 4.285156 -14.828125 3.578125 -15.890625 C 2.867188 -16.960938 2.515625 -18.378906 2.515625 -20.140625 C 2.515625 -21.828125 2.945312 -23.320312 3.8125 -24.625 C 4.6875 -25.9375 5.882812 -26.960938 7.40625 -27.703125 C 8.925781 -28.453125 10.6875 -28.828125 12.6875 -28.828125 C 15.332031 -28.828125 17.492188 -28.132812 19.171875 -26.75 C 20.859375 -25.363281 21.847656 -23.457031 22.140625 -21.03125 L 17.578125 -20.265625 C 17.015625 -23.035156 15.304688 -24.421875 12.453125 -24.421875 C 11.066406 -24.421875 9.9375 -24.0625 9.0625 -23.34375 C 8.195312 -22.625 7.765625 -21.675781 7.765625 -20.5 C 7.765625 -19.320312 8.191406 -18.421875 9.046875 -17.796875 C 9.898438 -17.171875 11.359375 -16.617188 13.421875 -16.140625 C 15.253906 -15.710938 16.835938 -15.210938 18.171875 -14.640625 C 19.515625 -14.066406 20.550781 -13.269531 21.28125 -12.25 C 22.019531 -11.238281 22.390625 -9.851562 22.390625 -8.09375 C 22.390625 -6.4375 21.941406 -4.972656 21.046875 -3.703125 C 20.148438 -2.429688 18.90625 -1.4375 17.3125 -0.71875 C 15.726562 0 13.882812 0.359375 11.78125 0.359375 Z M 11.78125 0.359375 "/></g></g></g><g fill="#ffffff" fill-opacity="1"><g transform="translate(250.499518, 47.159499)"><g><path d="M 11.78125 0.359375 C 8.4375 0.359375 5.828125 -0.382812 3.953125 -1.875 C 2.085938 -3.375 1.023438 -5.566406 0.765625 -8.453125 L 5.640625 -9.171875 C 6.128906 -5.753906 8.253906 -4.046875 12.015625 -4.046875 C 13.640625 -4.046875 14.90625 -4.367188 15.8125 -5.015625 C 16.726562 -5.671875 17.1875 -6.585938 17.1875 -7.765625 C 17.1875 -8.835938 16.726562 -9.644531 15.8125 -10.1875 C 14.90625 -10.738281 13.453125 -11.253906 11.453125 -11.734375 C 9.585938 -12.191406 7.984375 -12.734375 6.640625 -13.359375 C 5.304688 -13.984375 4.285156 -14.828125 3.578125 -15.890625 C 2.867188 -16.960938 2.515625 -18.378906 2.515625 -20.140625 C 2.515625 -21.828125 2.945312 -23.320312 3.8125 -24.625 C 4.6875 -25.9375 5.882812 -26.960938 7.40625 -27.703125 C 8.925781 -28.453125 10.6875 -28.828125 12.6875 -28.828125 C 15.332031 -28.828125 17.492188 -28.132812 19.171875 -26.75 C 20.859375 -25.363281 21.847656 -23.457031 22.140625 -21.03125 L 17.578125 -20.265625 C 17.015625 -23.035156 15.304688 -24.421875 12.453125 -24.421875 C 11.066406 -24.421875 9.9375 -24.0625 9.0625 -23.34375 C 8.195312 -22.625 7.765625 -21.675781 7.765625 -20.5 C 7.765625 -19.320312 8.191406 -18.421875 9.046875 -17.796875 C 9.898438 -17.171875 11.359375 -16.617188 13.421875 -16.140625 C 15.253906 -15.710938 16.835938 -15.210938 18.171875 -14.640625 C 19.515625 -14.066406 20.550781 -13.269531 21.28125 -12.25 C 22.019531 -11.238281 22.390625 -9.851562 22.390625 -8.09375 C 22.390625 -6.4375 21.941406 -4.972656 21.046875 -3.703125 C 20.148438 -2.429688 18.90625 -1.4375 17.3125 -0.71875 C 15.726562 0 13.882812 0.359375 11.78125 0.359375 Z M 11.78125 0.359375 "/></g></g></g><g fill="#ffffff" fill-opacity="1"><g transform="translate(304.448061, 47.159499)"><g><path d="M -0.40625 0 L 11.734375 -28.4375 L 16.140625 -28.4375 L 27.796875 0 L 22.5 0 L 19.9375 -6.484375 L 7.53125 -6.484375 L 4.890625 0 Z M 9.328125 -10.859375 L 18.265625 -10.859375 L 13.859375 -22.03125 Z M 9.328125 -10.859375 "/></g></g></g><g fill="#ffffff" fill-opacity="1"><g transform="translate(362.47981, 47.159499)"><g/></g></g><g fill="#ffffff" fill-opacity="1"><g transform="translate(402.697595, 47.159499)"><g><path d="M 25.390625 -4.96875 L 26.59375 -0.921875 C 26.0625 -0.523438 25.40625 -0.210938 24.625 0.015625 C 23.851562 0.242188 23.039062 0.359375 22.1875 0.359375 C 19.195312 0.359375 16.847656 -0.960938 15.140625 -3.609375 L 11.015625 -9.9375 C 10.585938 -10.601562 10.144531 -11.066406 9.6875 -11.328125 C 9.238281 -11.597656 8.742188 -11.734375 8.203125 -11.734375 L 8.015625 -11.734375 L 8.015625 0 L 2.921875 0 L 2.921875 -28.4375 L 11.78125 -28.4375 C 15.382812 -28.4375 18.113281 -27.6875 19.96875 -26.1875 C 21.820312 -24.695312 22.75 -22.644531 22.75 -20.03125 C 22.75 -18.445312 22.398438 -17.085938 21.703125 -15.953125 C 21.015625 -14.816406 20.066406 -13.914062 18.859375 -13.25 C 17.660156 -12.582031 16.300781 -12.15625 14.78125 -11.96875 C 15.582031 -11.539062 16.316406 -10.820312 16.984375 -9.8125 L 19.21875 -6.484375 C 19.8125 -5.628906 20.367188 -5.039062 20.890625 -4.71875 C 21.410156 -4.40625 22.066406 -4.25 22.859375 -4.25 C 23.796875 -4.25 24.640625 -4.488281 25.390625 -4.96875 Z M 11.40625 -24.1875 L 8.015625 -24.1875 L 8.015625 -15.8125 L 11.171875 -15.8125 C 13.359375 -15.8125 14.972656 -16.144531 16.015625 -16.8125 C 17.054688 -17.488281 17.578125 -18.5625 17.578125 -20.03125 C 17.578125 -22.800781 15.519531 -24.1875 11.40625 -24.1875 Z M 11.40625 -24.1875 "/></g></g></g><g fill="#ffffff" fill-opacity="1"><g transform="translate(458.287449, 47.159499)"><g><path d="M 15.578125 0.359375 C 12.691406 0.390625 10.222656 -0.144531 8.171875 -1.25 C 6.117188 -2.363281 4.539062 -3.972656 3.4375 -6.078125 C 2.34375 -8.191406 1.796875 -10.734375 1.796875 -13.703125 C 1.796875 -16.660156 2.382812 -19.28125 3.5625 -21.5625 C 4.738281 -23.84375 6.398438 -25.625 8.546875 -26.90625 C 10.703125 -28.1875 13.242188 -28.828125 16.171875 -28.828125 C 18.796875 -28.828125 21.09375 -28.238281 23.0625 -27.0625 C 25.039062 -25.894531 26.578125 -24.257812 27.671875 -22.15625 C 28.765625 -20.0625 29.3125 -17.601562 29.3125 -14.78125 C 29.3125 -11.707031 28.71875 -9.039062 27.53125 -6.78125 C 26.34375 -4.53125 24.710938 -2.773438 22.640625 -1.515625 C 20.578125 -0.265625 18.222656 0.359375 15.578125 0.359375 Z M 15.421875 -4.328125 C 17.097656 -4.328125 18.582031 -4.738281 19.875 -5.5625 C 21.175781 -6.394531 22.191406 -7.582031 22.921875 -9.125 C 23.660156 -10.675781 24.03125 -12.5625 24.03125 -14.78125 C 24.03125 -17.632812 23.304688 -19.914062 21.859375 -21.625 C 20.421875 -23.332031 18.488281 -24.1875 16.0625 -24.1875 C 14.320312 -24.1875 12.773438 -23.742188 11.421875 -22.859375 C 10.078125 -21.984375 9.019531 -20.769531 8.25 -19.21875 C 7.476562 -17.675781 7.09375 -15.863281 7.09375 -13.78125 C 7.09375 -10.757812 7.832031 -8.425781 9.3125 -6.78125 C 10.789062 -5.144531 12.828125 -4.328125 15.421875 -4.328125 Z M 15.421875 -4.328125 "/></g></g></g><g fill="#ffffff" fill-opacity="1"><g transform="translate(519.882019, 47.159499)"><g><path d="M 11.78125 0.359375 C 8.4375 0.359375 5.828125 -0.382812 3.953125 -1.875 C 2.085938 -3.375 1.023438 -5.566406 0.765625 -8.453125 L 5.640625 -9.171875 C 6.128906 -5.753906 8.253906 -4.046875 12.015625 -4.046875 C 13.640625 -4.046875 14.90625 -4.367188 15.8125 -5.015625 C 16.726562 -5.671875 17.1875 -6.585938 17.1875 -7.765625 C 17.1875 -8.835938 16.726562 -9.644531 15.8125 -10.1875 C 14.90625 -10.738281 13.453125 -11.253906 11.453125 -11.734375 C 9.585938 -12.191406 7.984375 -12.734375 6.640625 -13.359375 C 5.304688 -13.984375 4.285156 -14.828125 3.578125 -15.890625 C 2.867188 -16.960938 2.515625 -18.378906 2.515625 -20.140625 C 2.515625 -21.828125 2.945312 -23.320312 3.8125 -24.625 C 4.6875 -25.9375 5.882812 -26.960938 7.40625 -27.703125 C 8.925781 -28.453125 10.6875 -28.828125 12.6875 -28.828125 C 15.332031 -28.828125 17.492188 -28.132812 19.171875 -26.75 C 20.859375 -25.363281 21.847656 -23.457031 22.140625 -21.03125 L 17.578125 -20.265625 C 17.015625 -23.035156 15.304688 -24.421875 12.453125 -24.421875 C 11.066406 -24.421875 9.9375 -24.0625 9.0625 -23.34375 C 8.195312 -22.625 7.765625 -21.675781 7.765625 -20.5 C 7.765625 -19.320312 8.191406 -18.421875 9.046875 -17.796875 C 9.898438 -17.171875 11.359375 -16.617188 13.421875 -16.140625 C 15.253906 -15.710938 16.835938 -15.210938 18.171875 -14.640625 C 19.515625 -14.066406 20.550781 -13.269531 21.28125 -12.25 C 22.019531 -11.238281 22.390625 -9.851562 22.390625 -8.09375 C 22.390625 -6.4375 21.941406 -4.972656 21.046875 -3.703125 C 20.148438 -2.429688 18.90625 -1.4375 17.3125 -0.71875 C 15.726562 0 13.882812 0.359375 11.78125 0.359375 Z M 11.78125 0.359375 "/></g></g></g><g fill="#ffffff" fill-opacity="1"><g transform="translate(573.830561, 47.159499)"><g><path d="M 21.21875 -23.953125 L 8.015625 -23.953125 L 8.015625 -16.625 L 20.578125 -16.625 L 20.578125 -12.140625 L 8.015625 -12.140625 L 8.015625 -4.484375 L 21.703125 -4.484375 L 21.34375 0 L 2.921875 0 L 2.921875 -28.4375 L 21.21875 -28.4375 Z M 21.21875 -23.953125 "/></g></g></g></g></g><g clip-path="url(#fe8e0e8a0a)"><g clip-path="url(#51c567125d)"><g transform="matrix(1, 0, 0, 1, 734, 917)"><g clip-path="url(#10020dd523)"><g clip-path="url(#37038c925d)"><g clip-path="url(#473af8c76e)"><rect x="-1064" width="2160" fill="#dc416d" height="2159.999904" y="-1246.999985" fill-opacity="1"/></g></g></g></g></g></g><g clip-path="url(#d764e2b672)"><g clip-path="url(#ad74160520)"><g transform="matrix(1, 0, 0, 1, 726, 914)"><g clip-path="url(#7f397fa2bb)"><g clip-path="url(#dc786c531f)"><g clip-path="url(#654d528aab)"><rect x="-1056" width="2160" fill="#dc416d" height="2159.999904" y="-1243.999985" fill-opacity="1"/></g></g></g></g></g></g><g clip-path="url(#7087269a17)"><g clip-path="url(#4553041332)"><g transform="matrix(1, 0, 0, 1, 849, 915)"><g clip-path="url(#0bc75fce82)"><g clip-path="url(#c37755b73a)"><g clip-path="url(#ae89c518ed)"><rect x="-1179" width="2160" fill="#dc416d" height="2159.999904" y="-1244.999985" fill-opacity="1"/></g></g></g></g></g></g><g clip-path="url(#c3d2158828)"><g clip-path="url(#0856d150f8)"><g transform="matrix(1, 0, 0, 1, 781, 920)"><g clip-path="url(#193b57bb97)"><g clip-path="url(#f43920f7ef)"><g clip-path="url(#b5dc84511f)"><rect x="-1111" width="2160" fill="#dc416d" height="2159.999904" y="-1249.999985" fill-opacity="1"/></g></g></g></g></g></g><g clip-path="url(#3f758cb722)"><g clip-path="url(#ddbc8f11a1)"><g transform="matrix(1, 0, 0, 1, 789, 938)"><g clip-path="url(#49073c9035)"><g clip-path="url(#2cf1bb6408)"><g clip-path="url(#38c74313ac)"><rect x="-1119" width="2160" fill="#dc416d" height="2159.999904" y="-1267.999985" fill-opacity="1"/></g></g></g></g></g></g><g clip-path="url(#7c39af9554)"><g clip-path="url(#989c314c65)"><g transform="matrix(1, 0, 0, 1, 790, 939)"><g clip-path="url(#24606f59d2)"><g clip-path="url(#a0a3c47af7)"><g clip-path="url(#49d8f571e5)"><rect x="-1120" width="2160" fill="#dc416d" height="2159.999904" y="-1268.999985" fill-opacity="1"/></g></g></g></g></g></g><g clip-path="url(#0080034495)"><g clip-path="url(#65aaec6132)"><g transform="matrix(1, 0, 0, 1, 790, 938)"><g clip-path="url(#c19414647b)"><g clip-path="url(#d175d1d689)"><g clip-path="url(#ccb5ef3c70)"><rect x="-1120" width="2160" fill="#dc416d" height="2159.999904" y="-1267.999985" fill-opacity="1"/></g></g></g></g></g></g><g clip-path="url(#7b73785e1a)"><g clip-path="url(#00253c03d9)"><g transform="matrix(1, 0, 0, 1, 785, 936)"><g clip-path="url(#9d63ad5f7b)"><g clip-path="url(#af3051290c)"><g clip-path="url(#c0f69f2bee)"><rect x="-1115" width="2160" fill="#dc416d" height="2159.999904" y="-1265.999985" fill-opacity="1"/></g></g></g></g></g></g><g clip-path="url(#eb238dc686)"><g clip-path="url(#6a239ee08c)"><g transform="matrix(1, 0, 0, 1, 843, 911)"><g clip-path="url(#ac421c356d)"><g clip-path="url(#659a3026a0)"><g clip-path="url(#b631b4e482)"><rect x="-1173" width="2160" fill="#dc416d" height="2159.999904" y="-1240.999985" fill-opacity="1"/></g></g></g></g></g></g><g clip-path="url(#d3c5d62ad9)"><g clip-path="url(#08e6ae01f6)"><g transform="matrix(1, 0, 0, 1, 838, 888)"><g clip-path="url(#c8c6750707)"><g clip-path="url(#61878b5363)"><g clip-path="url(#3e5f5cf742)"><rect x="-1168" width="2160" fill="#dc416d" height="2159.999904" y="-1217.999985" fill-opacity="1"/></g></g></g></g></g></g></svg>